<?xml version="1.0" standalone="no"?>
<!DOCTYPE svg PUBLIC "-//W3C//DTD SVG 1.1//EN" "http://www.w3.org/Graphics/SVG/1.1/DTD/svg11.dtd">
<svg width="83.00000000000001mm" height="102.00000000000003mm"
 viewBox="0 0 83.00000000000001 102.00000000000003"
 xmlns="http://www.w3.org/2000/svg" version="1.1"
 xmlns:xlink="http://www.w3.org/1999/xlink">
<desc>Output from Flights of Ideas SVG Sketchup Plugin</desc>

  <path id="face0-cut"
 style="fill:none;stroke:#0000FF;stroke-width:0.1;stroke-miterlimit:4;stroke-dasharray:none;stroke-linejoin:round;stroke-linecap:round"
        d="M 73.00000000000001,88.99999999999999 L 73.00000000000001,12.999999999999996 L 72.89777747886723,12.22354286469244 L 72.59807621135332,11.5 L 72.12132034355966,10.878679656440337 L 71.50000000000001,10.401923788646673 L 70.77645713530758,10.102222521132791 L 70.00000000000001,10.0 L 12.999999999999995,10.0 L 12.223542864692439,10.10222252113278 L 11.50000000000002,10.401923788646684 L 10.878679656440358,10.878679656440358 L 10.401923788646684,11.50000000000001 L 10.102222521132802,12.22354286469244 L 10.0,12.999999999999996 L 10.000000000000023,21.400000000000002 M 28.0,21.400000000000013 M 27.999999999999993,46.400000000000034 M 10.000000000000012,46.400000000000034 L 10.000000000000012,55.59999999999998 M 28.000000000000014,55.59999999999998 M 28.000000000000007,80.60000000000002 M 10.000000000000012,80.60000000000001 L 10.000000000000012,89.0 L 10.102222521132802,89.77645713530724 L 10.401923788646695,90.49999999999984 L 10.87867965644037,91.12132034355966 L 11.500000000000009,91.59807621135317 L 12.22354286469245,91.89777747886706 L 13.000000000000007,92.00000000000003 L 70.00000000000001,91.99999999999999 L 70.77645713530757,91.8977774788672 L 71.50000000000001,91.59807621135329 L 72.12132034355966,91.12132034355965 L 72.59807621135333,90.50000000000001 L 72.89777747886721,89.77645713530755 L 73.00000000000001,88.99999999999999 M 26.000000000000007,89.0 L 26.000000000000007,85.99999999999996 L 36.0,85.99999999999996 L 36.0,88.99999999999999 L 26.000000000000007,89.0 M 63.0,88.99999999999999 L 53.00000000000001,88.99999999999999 L 53.00000000000001,86.0 L 63.0,86.0 L 63.0,88.99999999999999 M 16.0,81.60000000000002 L 16.0,85.00000000000003 L 13.000000000000007,85.00000000000007 L 13.000000000000007,81.60000000000004 L 16.0,81.60000000000002 M 23.459260459420342,50.65886531551525 L 23.510371719986757,51.04709388316897 L 23.459260459420364,51.43532245082278 L 23.309409825663394,51.797093883169026 L 23.071031891766566,52.10775405494884 L 22.76037171998675,52.34613198884566 L 22.398600287640527,52.4959826226026 L 22.010371719986757,52.547093883169 L 21.622143152332967,52.4959826226026 L 21.26037171998675,52.34613198884567 L 20.94971154820692,52.107754054948835 L 20.7113336143101,51.79709388316898 L 20.561482980553144,51.435322450822795 L 20.510371719986736,51.04709388316901 L 20.56148298055313,50.65886531551524 L 20.7113336143101,50.297093883169026 L 20.949711548206913,49.9864337113892 L 21.260371719986757,49.74805577749237 L 21.622143152332967,49.598205143735456 L 22.010371719986736,49.54709388316904 L 22.398600287640527,49.5982051437354 L 22.76037171998675,49.74805577749237 L 23.071031891766573,49.986433711389196 L 23.30940982566341,50.29709388316903 L 23.459260459420342,50.65886531551525 M 67.00000000000001,41.000000000000014 L 67.00000000000001,25.999999999999993 L 70.00000000000001,25.999999999999993 L 70.00000000000001,41.00000000000001 L 67.00000000000001,41.000000000000014 M 13.000000000000007,17.00000000000001 L 16.0,17.00000000000001 L 16.0,20.400000000000006 L 13.000000000000028,20.39999999999999 L 13.000000000000007,17.00000000000001 M 53.00000000000002,15.999999999999991 L 53.0,12.999999999999996 L 63.000000000000014,12.999999999999996 L 63.0,15.999999999999991 L 53.00000000000002,15.999999999999991 M 26.0,16.0 L 26.000000000000014,13.000000000000007 L 35.99999999999999,12.999999999999996 L 36.00000000000002,15.999999999999991 L 26.0,16.0 M 16.02074343997348,54.59999999999998 L 13.010371719986752,54.59999999999998 L 13.01037171998674,47.49418776633806 L 16.020743439973472,47.49418776633805 L 16.02074343997348,54.59999999999998 M 67.00000000000001,75.79999999999993 L 67.00000000000001,60.799999999999955 L 70.00000000000001,60.799999999999955 L 70.00000000000001,75.79999999999993 L 67.00000000000001,75.79999999999993 M 60.551111260566415,80.98822856765376 L 60.50000000000001,80.60000000000001 L 60.551111260566415,80.21177143234621 L 60.700961894323356,79.85 L 60.93933982822019,79.53933982822016 L 61.25000000000001,79.30096189432334 L 61.611771432346224,79.15111126056641 L 62.000000000000014,79.09999999999998 L 62.38822856765378,79.15111126056641 L 62.750000000000014,79.30096189432334 L 63.06066017177983,79.53933982822016 L 63.29903810567668,79.85 L 63.4488887394336,80.21177143234621 L 63.500000000000014,80.60000000000001 L 63.44888873943362,80.98822856765376 L 63.299038105676665,81.34999999999997 L 63.060660171779816,81.66066017177981 L 62.75000000000001,81.89903810567664 L 62.3882285676538,82.04888873943361 L 62.00000000000001,82.09999999999998 L 61.611771432346224,82.04888873943361 L 61.250000000000014,81.89903810567664 L 60.93933982822019,81.66066017177981 L 60.700961894323356,81.34999999999997 L 60.551111260566415,80.98822856765376 M 31.551111260566408,80.98822856765376 L 31.500000000000014,80.6 L 31.5511112605664,80.21177143234621 L 31.700961894323356,79.85000000000002 L 31.93933982822019,79.53933982822018 L 32.25,79.30096189432332 L 32.611771432346224,79.15111126056641 L 33.0,79.10000000000001 L 33.38822856765378,79.15111126056641 L 33.74999999999999,79.30096189432334 L 34.06066017177982,79.53933982822015 L 34.29903810567666,79.85000000000002 L 34.448888739433606,80.21177143234618 L 34.5,80.60000000000002 L 34.448888739433606,80.98822856765378 L 34.29903810567666,81.34999999999997 L 34.06066017177983,81.66066017177978 L 33.75000000000001,81.89903810567664 L 33.38822856765378,82.0488887394336 L 33.0,82.09999999999997 L 32.611771432346224,82.0488887394336 L 32.25,81.89903810567664 L 31.93933982822019,81.6606601717798 L 31.700961894323356,81.35 L 31.551111260566408,80.98822856765376 M 63.448888739433606,21.011771432346226 L 63.5,21.400000000000013 L 63.448888739433606,21.788228567653782 L 63.29903810567668,22.14999999999999 L 63.06066017177983,22.46066017177983 L 62.75000000000001,22.699038105676653 L 62.38822856765378,22.848888739433605 L 61.99999999999999,22.9 L 61.611771432346224,22.848888739433605 L 61.250000000000014,22.699038105676653 L 60.93933982822019,22.46066017177983 L 60.700961894323356,22.149999999999977 L 60.5511112605664,21.788228567653782 L 60.50000000000001,21.400000000000002 L 60.5511112605664,21.011771432346237 L 60.700961894323356,20.64999999999999 L 60.939339828220206,20.33933982822018 L 61.250000000000014,20.100961894323355 L 61.61177143234622,19.9511112605664 L 62.00000000000001,19.900000000000006 L 62.38822856765377,19.9511112605664 L 62.750000000000014,20.100961894323355 L 63.06066017177983,20.33933982822018 L 63.29903810567668,20.649999999999984 L 63.448888739433606,21.011771432346226 M 33.00000000000001,22.9 L 32.611771432346224,22.848888739433605 L 32.25,22.699038105676653 L 31.939339828220206,22.460660171779814 L 31.700961894323356,22.149999999999977 L 31.55111126056638,21.788228567653803 L 31.499999999999993,21.400000000000013 L 31.551111260566415,21.0117714323462 L 31.700961894323342,20.64999999999999 L 31.9393398282202,20.33933982822018 L 32.250000000000014,20.10096189432334 L 32.61177143234621,19.951111260566414 L 32.99999999999999,19.900000000000006 L 33.38822856765379,19.9511112605664 L 33.750000000000014,20.100961894323355 L 34.06066017177982,20.33933982822018 L 34.299038105676644,20.650000000000006 L 34.448888739433606,21.011771432346226 L 34.5,21.400000000000002 L 34.44888873943361,21.788228567653782 L 34.299038105676644,22.150000000000002 L 34.06066017177983,22.460660171779814 L 33.750000000000014,22.699038105676653 L 33.388228567653805,22.848888739433594 L 33.00000000000001,22.9 "
  />
  <path id="face1-cut"
 style="fill:none;stroke:#0000FF;stroke-width:0.1;stroke-miterlimit:4;stroke-dasharray:none;stroke-linejoin:round;stroke-linecap:round"
        d="M 28.000000000000014,55.59999999999998 M 10.000000000000012,55.59999999999998 L 10.000000000000012,80.60000000000001 M 28.000000000000007,80.60000000000002 M 20.442200000000035,59.98458461347499 L 19.963384766560367,59.92154739210978 L 19.517200000000038,59.73673161047617 L 19.134052454804916,59.44273215867008 L 18.840053002998815,59.05958461347498 L 18.655237221365248,58.61339984691466 L 18.592200000000048,58.13458461347494 L 18.65523722136526,57.655769380035316 L 18.840053002998815,57.20958461347499 L 19.134052454804916,56.82643706827989 L 19.51720000000003,56.53243761647378 L 19.96338476656038,56.347621834840176 L 20.442200000000035,56.28458461347497 L 20.921015233439697,56.3476218348402 L 21.36720000000004,56.532437616473786 L 21.75034754519516,56.826437068279866 L 22.044346997001234,57.20958461347497 L 22.22916277863481,57.65576938003531 L 22.292200000000022,58.134584613474956 L 22.229162778634795,58.61339984691466 L 22.044346997001234,59.05958461347497 L 21.750347545195147,59.44273215867007 L 21.367200000000025,59.736731610476184 L 20.921015233439697,59.92154739210976 L 20.442200000000035,59.98458461347499 M 18.592200000000034,78.10999999999991 L 18.65523722136526,77.6311847665603 L 18.840053002998815,77.18499999999999 L 19.134052454804916,76.80185245480483 L 19.517200000000038,76.50785300299883 L 19.963384766560367,76.32303722136518 L 20.442200000000035,76.25999999999999 L 20.921015233439697,76.3230372213652 L 21.36720000000004,76.50785300299877 L 21.750347545195147,76.80185245480486 L 22.04434699700125,77.18499999999996 L 22.229162778634816,77.63118476656031 L 22.292200000000037,78.10999999999993 L 22.229162778634816,78.58881523343968 L 22.04434699700125,79.03500000000003 L 21.750347545195147,79.41814754519504 L 21.36720000000004,79.71214699700117 L 20.921015233439697,79.89696277863477 L 20.442200000000035,79.95999999999998 L 19.963384766560367,79.89696277863474 L 19.517200000000038,79.71214699700118 L 19.134052454804916,79.41814754519511 L 18.840053002998815,79.035 L 18.65523722136526,78.58881523343968 L 18.592200000000034,78.10999999999991 "
  />
  <path id="face2-cut"
 style="fill:none;stroke:#0000FF;stroke-width:0.1;stroke-miterlimit:4;stroke-dasharray:none;stroke-linejoin:round;stroke-linecap:round"
        d="M 10.000000000000023,21.400000000000002 L 10.000000000000012,46.400000000000034 M 27.999999999999993,46.400000000000034 M 28.0,21.400000000000013 M 22.29220000000003,23.984584613475022 L 22.229162778634823,24.46339984691469 L 22.044346997001227,24.90958461347504 L 21.75034754519516,25.29273215867013 L 21.367200000000025,25.58673161047625 L 20.92101523343971,25.771547392109795 L 20.442200000000035,25.83458461347502 L 19.963384766560367,25.771547392109795 L 19.517200000000038,25.58673161047625 L 19.134052454804923,25.29273215867014 L 18.840053002998808,24.909584613475072 L 18.65523722136527,24.463399846914676 L 18.592200000000034,23.984584613475022 L 18.65523722136527,23.505769380035357 L 18.840053002998815,23.059584613475018 L 19.134052454804923,22.676437068279927 L 19.51720000000003,22.38243761647382 L 19.963384766560367,22.197621834840252 L 20.442200000000035,22.13458461347505 L 20.92101523343971,22.197621834840252 L 21.367200000000025,22.38243761647383 L 21.75034754519514,22.676437068279927 L 22.044346997001227,23.05958461347503 L 22.229162778634823,23.505769380035368 L 22.29220000000003,23.984584613475022 M 18.655237221365248,44.43881523343971 L 18.592200000000034,43.96000000000001 L 18.65523722136527,43.48118476656036 L 18.840053002998808,43.03500000000005 L 19.134052454804916,42.651852454804896 L 19.517200000000052,42.35785300299882 L 19.963384766560367,42.173037221365256 L 20.442200000000035,42.11000000000003 L 20.92101523343971,42.17303722136524 L 21.367200000000025,42.35785300299885 L 21.750347545195147,42.651852454804896 L 22.044346997001256,43.03500000000004 L 22.22916277863483,43.48118476656036 L 22.292200000000037,43.96000000000001 L 22.229162778634816,44.43881523343972 L 22.04434699700125,44.885000000000026 L 21.750347545195147,45.26814754519512 L 21.367200000000047,45.56214699700122 L 20.92101523343969,45.746962778634845 L 20.442200000000035,45.81000000000006 L 19.963384766560367,45.746962778634824 L 19.517200000000038,45.56214699700124 L 19.134052454804916,45.26814754519512 L 18.840053002998815,44.88500000000002 L 18.655237221365248,44.43881523343971 "
  />
  <path id="face0-interior"
 style="fill:none;stroke:#FF0000;stroke-width:0.1;stroke-miterlimit:4;stroke-dasharray:none;stroke-linejoin:round;stroke-linecap:round"
        d="M 73.00000000000001,88.99999999999999 M 73.00000000000001,12.999999999999996 M 72.89777747886723,12.22354286469244 M 72.59807621135332,11.5 M 72.12132034355966,10.878679656440337 M 71.50000000000001,10.401923788646673 M 70.77645713530758,10.102222521132791 M 70.00000000000001,10.0 M 12.999999999999995,10.0 M 12.223542864692439,10.10222252113278 M 11.50000000000002,10.401923788646684 M 10.878679656440358,10.878679656440358 M 10.401923788646684,11.50000000000001 M 10.102222521132802,12.22354286469244 M 10.0,12.999999999999996 M 10.000000000000023,21.400000000000002 L 28.0,21.400000000000013 L 27.999999999999993,46.400000000000034 L 10.000000000000012,46.400000000000034 M 10.000000000000012,55.59999999999998 L 28.000000000000014,55.59999999999998 L 28.000000000000007,80.60000000000002 L 10.000000000000012,80.60000000000001 M 10.000000000000012,89.0 M 10.102222521132802,89.77645713530724 M 10.401923788646695,90.49999999999984 M 10.87867965644037,91.12132034355966 M 11.500000000000009,91.59807621135317 M 12.22354286469245,91.89777747886706 M 13.000000000000007,92.00000000000003 M 70.00000000000001,91.99999999999999 M 70.77645713530757,91.8977774788672 M 71.50000000000001,91.59807621135329 M 72.12132034355966,91.12132034355965 M 72.59807621135333,90.50000000000001 M 72.89777747886721,89.77645713530755 M 26.000000000000007,89.0 M 26.000000000000007,85.99999999999996 M 36.0,85.99999999999996 M 36.0,88.99999999999999 M 63.0,88.99999999999999 M 53.00000000000001,88.99999999999999 M 53.00000000000001,86.0 M 63.0,86.0 M 16.0,81.60000000000002 M 16.0,85.00000000000003 M 13.000000000000007,85.00000000000007 M 13.000000000000007,81.60000000000004 M 23.459260459420342,50.65886531551525 M 23.510371719986757,51.04709388316897 M 23.459260459420364,51.43532245082278 M 23.309409825663394,51.797093883169026 M 23.071031891766566,52.10775405494884 M 22.76037171998675,52.34613198884566 M 22.398600287640527,52.4959826226026 M 22.010371719986757,52.547093883169 M 21.622143152332967,52.4959826226026 M 21.26037171998675,52.34613198884567 M 20.94971154820692,52.107754054948835 M 20.7113336143101,51.79709388316898 M 20.561482980553144,51.435322450822795 M 20.510371719986736,51.04709388316901 M 20.56148298055313,50.65886531551524 M 20.7113336143101,50.297093883169026 M 20.949711548206913,49.9864337113892 M 21.260371719986757,49.74805577749237 M 21.622143152332967,49.598205143735456 M 22.010371719986736,49.54709388316904 M 22.398600287640527,49.5982051437354 M 22.76037171998675,49.74805577749237 M 23.071031891766573,49.986433711389196 M 23.30940982566341,50.29709388316903 M 67.00000000000001,41.000000000000014 M 67.00000000000001,25.999999999999993 M 70.00000000000001,25.999999999999993 M 70.00000000000001,41.00000000000001 M 13.000000000000007,17.00000000000001 M 16.0,17.00000000000001 M 16.0,20.400000000000006 M 13.000000000000028,20.39999999999999 M 53.00000000000002,15.999999999999991 M 53.0,12.999999999999996 M 63.000000000000014,12.999999999999996 M 63.0,15.999999999999991 M 26.0,16.0 M 26.000000000000014,13.000000000000007 M 35.99999999999999,12.999999999999996 M 36.00000000000002,15.999999999999991 M 16.02074343997348,54.59999999999998 M 13.010371719986752,54.59999999999998 M 13.01037171998674,47.49418776633806 M 16.020743439973472,47.49418776633805 M 67.00000000000001,75.79999999999993 M 67.00000000000001,60.799999999999955 M 70.00000000000001,60.799999999999955 M 70.00000000000001,75.79999999999993 M 60.551111260566415,80.98822856765376 M 60.50000000000001,80.60000000000001 M 60.551111260566415,80.21177143234621 M 60.700961894323356,79.85 M 60.93933982822019,79.53933982822016 M 61.25000000000001,79.30096189432334 M 61.611771432346224,79.15111126056641 M 62.000000000000014,79.09999999999998 M 62.38822856765378,79.15111126056641 M 62.750000000000014,79.30096189432334 M 63.06066017177983,79.53933982822016 M 63.29903810567668,79.85 M 63.4488887394336,80.21177143234621 M 63.500000000000014,80.60000000000001 M 63.44888873943362,80.98822856765376 M 63.299038105676665,81.34999999999997 M 63.060660171779816,81.66066017177981 M 62.75000000000001,81.89903810567664 M 62.3882285676538,82.04888873943361 M 62.00000000000001,82.09999999999998 M 61.611771432346224,82.04888873943361 M 61.250000000000014,81.89903810567664 M 60.93933982822019,81.66066017177981 M 60.700961894323356,81.34999999999997 M 31.551111260566408,80.98822856765376 M 31.500000000000014,80.6 M 31.5511112605664,80.21177143234621 M 31.700961894323356,79.85000000000002 M 31.93933982822019,79.53933982822018 M 32.25,79.30096189432332 M 32.611771432346224,79.15111126056641 M 33.0,79.10000000000001 M 33.38822856765378,79.15111126056641 M 33.74999999999999,79.30096189432334 M 34.06066017177982,79.53933982822015 M 34.29903810567666,79.85000000000002 M 34.448888739433606,80.21177143234618 M 34.5,80.60000000000002 M 34.448888739433606,80.98822856765378 M 34.29903810567666,81.34999999999997 M 34.06066017177983,81.66066017177978 M 33.75000000000001,81.89903810567664 M 33.38822856765378,82.0488887394336 M 33.0,82.09999999999997 M 32.611771432346224,82.0488887394336 M 32.25,81.89903810567664 M 31.93933982822019,81.6606601717798 M 31.700961894323356,81.35 M 63.448888739433606,21.011771432346226 M 63.5,21.400000000000013 M 63.448888739433606,21.788228567653782 M 63.29903810567668,22.14999999999999 M 63.06066017177983,22.46066017177983 M 62.75000000000001,22.699038105676653 M 62.38822856765378,22.848888739433605 M 61.99999999999999,22.9 M 61.611771432346224,22.848888739433605 M 61.250000000000014,22.699038105676653 M 60.93933982822019,22.46066017177983 M 60.700961894323356,22.149999999999977 M 60.5511112605664,21.788228567653782 M 60.50000000000001,21.400000000000002 M 60.5511112605664,21.011771432346237 M 60.700961894323356,20.64999999999999 M 60.939339828220206,20.33933982822018 M 61.250000000000014,20.100961894323355 M 61.61177143234622,19.9511112605664 M 62.00000000000001,19.900000000000006 M 62.38822856765377,19.9511112605664 M 62.750000000000014,20.100961894323355 M 63.06066017177983,20.33933982822018 M 63.29903810567668,20.649999999999984 M 33.00000000000001,22.9 M 32.611771432346224,22.848888739433605 M 32.25,22.699038105676653 M 31.939339828220206,22.460660171779814 M 31.700961894323356,22.149999999999977 M 31.55111126056638,21.788228567653803 M 31.499999999999993,21.400000000000013 M 31.551111260566415,21.0117714323462 M 31.700961894323342,20.64999999999999 M 31.9393398282202,20.33933982822018 M 32.250000000000014,20.10096189432334 M 32.61177143234621,19.951111260566414 M 32.99999999999999,19.900000000000006 M 33.38822856765379,19.9511112605664 M 33.750000000000014,20.100961894323355 M 34.06066017177982,20.33933982822018 M 34.299038105676644,20.650000000000006 M 34.448888739433606,21.011771432346226 M 34.5,21.400000000000002 M 34.44888873943361,21.788228567653782 M 34.299038105676644,22.150000000000002 M 34.06066017177983,22.460660171779814 M 33.750000000000014,22.699038105676653 M 33.388228567653805,22.848888739433594 "
  />
  <path id="face1-interior"
 style="fill:none;stroke:#FF0000;stroke-width:0.1;stroke-miterlimit:4;stroke-dasharray:none;stroke-linejoin:round;stroke-linecap:round"
        d="M 28.000000000000014,55.59999999999998 M 10.000000000000012,55.59999999999998 M 10.000000000000012,80.60000000000001 M 28.000000000000007,80.60000000000002 M 20.442200000000035,59.98458461347499 M 19.963384766560367,59.92154739210978 M 19.517200000000038,59.73673161047617 M 19.134052454804916,59.44273215867008 M 18.840053002998815,59.05958461347498 M 18.655237221365248,58.61339984691466 M 18.592200000000048,58.13458461347494 M 18.65523722136526,57.655769380035316 M 18.840053002998815,57.20958461347499 M 19.134052454804916,56.82643706827989 M 19.51720000000003,56.53243761647378 M 19.96338476656038,56.347621834840176 M 20.442200000000035,56.28458461347497 M 20.921015233439697,56.3476218348402 M 21.36720000000004,56.532437616473786 M 21.75034754519516,56.826437068279866 M 22.044346997001234,57.20958461347497 M 22.22916277863481,57.65576938003531 M 22.292200000000022,58.134584613474956 M 22.229162778634795,58.61339984691466 M 22.044346997001234,59.05958461347497 M 21.750347545195147,59.44273215867007 M 21.367200000000025,59.736731610476184 M 20.921015233439697,59.92154739210976 M 18.592200000000034,78.10999999999991 M 18.65523722136526,77.6311847665603 M 18.840053002998815,77.18499999999999 M 19.134052454804916,76.80185245480483 M 19.517200000000038,76.50785300299883 M 19.963384766560367,76.32303722136518 M 20.442200000000035,76.25999999999999 M 20.921015233439697,76.3230372213652 M 21.36720000000004,76.50785300299877 M 21.750347545195147,76.80185245480486 M 22.04434699700125,77.18499999999996 M 22.229162778634816,77.63118476656031 M 22.292200000000037,78.10999999999993 M 22.229162778634816,78.58881523343968 M 22.04434699700125,79.03500000000003 M 21.750347545195147,79.41814754519504 M 21.36720000000004,79.71214699700117 M 20.921015233439697,79.89696277863477 M 20.442200000000035,79.95999999999998 M 19.963384766560367,79.89696277863474 M 19.517200000000038,79.71214699700118 M 19.134052454804916,79.41814754519511 M 18.840053002998815,79.035 M 18.65523722136526,78.58881523343968 "
  />
  <path id="face2-interior"
 style="fill:none;stroke:#FF0000;stroke-width:0.1;stroke-miterlimit:4;stroke-dasharray:none;stroke-linejoin:round;stroke-linecap:round"
        d="M 10.000000000000023,21.400000000000002 M 10.000000000000012,46.400000000000034 M 27.999999999999993,46.400000000000034 M 28.0,21.400000000000013 M 22.29220000000003,23.984584613475022 M 22.229162778634823,24.46339984691469 M 22.044346997001227,24.90958461347504 M 21.75034754519516,25.29273215867013 M 21.367200000000025,25.58673161047625 M 20.92101523343971,25.771547392109795 M 20.442200000000035,25.83458461347502 M 19.963384766560367,25.771547392109795 M 19.517200000000038,25.58673161047625 M 19.134052454804923,25.29273215867014 M 18.840053002998808,24.909584613475072 M 18.65523722136527,24.463399846914676 M 18.592200000000034,23.984584613475022 M 18.65523722136527,23.505769380035357 M 18.840053002998815,23.059584613475018 M 19.134052454804923,22.676437068279927 M 19.51720000000003,22.38243761647382 M 19.963384766560367,22.197621834840252 M 20.442200000000035,22.13458461347505 M 20.92101523343971,22.197621834840252 M 21.367200000000025,22.38243761647383 M 21.75034754519514,22.676437068279927 M 22.044346997001227,23.05958461347503 M 22.229162778634823,23.505769380035368 M 18.655237221365248,44.43881523343971 M 18.592200000000034,43.96000000000001 M 18.65523722136527,43.48118476656036 M 18.840053002998808,43.03500000000005 M 19.134052454804916,42.651852454804896 M 19.517200000000052,42.35785300299882 M 19.963384766560367,42.173037221365256 M 20.442200000000035,42.11000000000003 M 20.92101523343971,42.17303722136524 M 21.367200000000025,42.35785300299885 M 21.750347545195147,42.651852454804896 M 22.044346997001256,43.03500000000004 M 22.22916277863483,43.48118476656036 M 22.292200000000037,43.96000000000001 M 22.229162778634816,44.43881523343972 M 22.04434699700125,44.885000000000026 M 21.750347545195147,45.26814754519512 M 21.367200000000047,45.56214699700122 M 20.92101523343969,45.746962778634845 M 20.442200000000035,45.81000000000006 M 19.963384766560367,45.746962778634824 M 19.517200000000038,45.56214699700124 M 19.134052454804916,45.26814754519512 M 18.840053002998815,44.88500000000002 "
  />
  <path id="face0-interior"
 style="fill:none;stroke:#00FF00;stroke-width:0.1;stroke-miterlimit:4;stroke-dasharray:none;stroke-linejoin:round;stroke-linecap:round"
        d="M 73.00000000000001,88.99999999999999 M 73.00000000000001,12.999999999999996 M 72.89777747886723,12.22354286469244 M 72.59807621135332,11.5 M 72.12132034355966,10.878679656440337 M 71.50000000000001,10.401923788646673 M 70.77645713530758,10.102222521132791 M 70.00000000000001,10.0 M 12.999999999999995,10.0 M 12.223542864692439,10.10222252113278 M 11.50000000000002,10.401923788646684 M 10.878679656440358,10.878679656440358 M 10.401923788646684,11.50000000000001 M 10.102222521132802,12.22354286469244 M 10.0,12.999999999999996 M 10.000000000000023,21.400000000000002 M 28.0,21.400000000000013 M 27.999999999999993,46.400000000000034 M 10.000000000000012,46.400000000000034 M 10.000000000000012,55.59999999999998 M 28.000000000000014,55.59999999999998 M 28.000000000000007,80.60000000000002 M 10.000000000000012,80.60000000000001 M 10.000000000000012,89.0 M 10.102222521132802,89.77645713530724 M 10.401923788646695,90.49999999999984 M 10.87867965644037,91.12132034355966 M 11.500000000000009,91.59807621135317 M 12.22354286469245,91.89777747886706 M 13.000000000000007,92.00000000000003 M 70.00000000000001,91.99999999999999 M 70.77645713530757,91.8977774788672 M 71.50000000000001,91.59807621135329 M 72.12132034355966,91.12132034355965 M 72.59807621135333,90.50000000000001 M 72.89777747886721,89.77645713530755 M 26.000000000000007,89.0 M 26.000000000000007,85.99999999999996 M 36.0,85.99999999999996 M 36.0,88.99999999999999 M 63.0,88.99999999999999 M 53.00000000000001,88.99999999999999 M 53.00000000000001,86.0 M 63.0,86.0 M 16.0,81.60000000000002 M 16.0,85.00000000000003 M 13.000000000000007,85.00000000000007 M 13.000000000000007,81.60000000000004 M 23.459260459420342,50.65886531551525 M 23.510371719986757,51.04709388316897 M 23.459260459420364,51.43532245082278 M 23.309409825663394,51.797093883169026 M 23.071031891766566,52.10775405494884 M 22.76037171998675,52.34613198884566 M 22.398600287640527,52.4959826226026 M 22.010371719986757,52.547093883169 M 21.622143152332967,52.4959826226026 M 21.26037171998675,52.34613198884567 M 20.94971154820692,52.107754054948835 M 20.7113336143101,51.79709388316898 M 20.561482980553144,51.435322450822795 M 20.510371719986736,51.04709388316901 M 20.56148298055313,50.65886531551524 M 20.7113336143101,50.297093883169026 M 20.949711548206913,49.9864337113892 M 21.260371719986757,49.74805577749237 M 21.622143152332967,49.598205143735456 M 22.010371719986736,49.54709388316904 M 22.398600287640527,49.5982051437354 M 22.76037171998675,49.74805577749237 M 23.071031891766573,49.986433711389196 M 23.30940982566341,50.29709388316903 M 67.00000000000001,41.000000000000014 M 67.00000000000001,25.999999999999993 M 70.00000000000001,25.999999999999993 M 70.00000000000001,41.00000000000001 M 13.000000000000007,17.00000000000001 M 16.0,17.00000000000001 M 16.0,20.400000000000006 M 13.000000000000028,20.39999999999999 M 53.00000000000002,15.999999999999991 M 53.0,12.999999999999996 M 63.000000000000014,12.999999999999996 M 63.0,15.999999999999991 M 26.0,16.0 M 26.000000000000014,13.000000000000007 M 35.99999999999999,12.999999999999996 M 36.00000000000002,15.999999999999991 M 16.02074343997348,54.59999999999998 M 13.010371719986752,54.59999999999998 M 13.01037171998674,47.49418776633806 M 16.020743439973472,47.49418776633805 M 67.00000000000001,75.79999999999993 M 67.00000000000001,60.799999999999955 M 70.00000000000001,60.799999999999955 M 70.00000000000001,75.79999999999993 M 60.551111260566415,80.98822856765376 M 60.50000000000001,80.60000000000001 M 60.551111260566415,80.21177143234621 M 60.700961894323356,79.85 M 60.93933982822019,79.53933982822016 M 61.25000000000001,79.30096189432334 M 61.611771432346224,79.15111126056641 M 62.000000000000014,79.09999999999998 M 62.38822856765378,79.15111126056641 M 62.750000000000014,79.30096189432334 M 63.06066017177983,79.53933982822016 M 63.29903810567668,79.85 M 63.4488887394336,80.21177143234621 M 63.500000000000014,80.60000000000001 M 63.44888873943362,80.98822856765376 M 63.299038105676665,81.34999999999997 M 63.060660171779816,81.66066017177981 M 62.75000000000001,81.89903810567664 M 62.3882285676538,82.04888873943361 M 62.00000000000001,82.09999999999998 M 61.611771432346224,82.04888873943361 M 61.250000000000014,81.89903810567664 M 60.93933982822019,81.66066017177981 M 60.700961894323356,81.34999999999997 M 31.551111260566408,80.98822856765376 M 31.500000000000014,80.6 M 31.5511112605664,80.21177143234621 M 31.700961894323356,79.85000000000002 M 31.93933982822019,79.53933982822018 M 32.25,79.30096189432332 M 32.611771432346224,79.15111126056641 M 33.0,79.10000000000001 M 33.38822856765378,79.15111126056641 M 33.74999999999999,79.30096189432334 M 34.06066017177982,79.53933982822015 M 34.29903810567666,79.85000000000002 M 34.448888739433606,80.21177143234618 M 34.5,80.60000000000002 M 34.448888739433606,80.98822856765378 M 34.29903810567666,81.34999999999997 M 34.06066017177983,81.66066017177978 M 33.75000000000001,81.89903810567664 M 33.38822856765378,82.0488887394336 M 33.0,82.09999999999997 M 32.611771432346224,82.0488887394336 M 32.25,81.89903810567664 M 31.93933982822019,81.6606601717798 M 31.700961894323356,81.35 M 63.448888739433606,21.011771432346226 M 63.5,21.400000000000013 M 63.448888739433606,21.788228567653782 M 63.29903810567668,22.14999999999999 M 63.06066017177983,22.46066017177983 M 62.75000000000001,22.699038105676653 M 62.38822856765378,22.848888739433605 M 61.99999999999999,22.9 M 61.611771432346224,22.848888739433605 M 61.250000000000014,22.699038105676653 M 60.93933982822019,22.46066017177983 M 60.700961894323356,22.149999999999977 M 60.5511112605664,21.788228567653782 M 60.50000000000001,21.400000000000002 M 60.5511112605664,21.011771432346237 M 60.700961894323356,20.64999999999999 M 60.939339828220206,20.33933982822018 M 61.250000000000014,20.100961894323355 M 61.61177143234622,19.9511112605664 M 62.00000000000001,19.900000000000006 M 62.38822856765377,19.9511112605664 M 62.750000000000014,20.100961894323355 M 63.06066017177983,20.33933982822018 M 63.29903810567668,20.649999999999984 M 33.00000000000001,22.9 M 32.611771432346224,22.848888739433605 M 32.25,22.699038105676653 M 31.939339828220206,22.460660171779814 M 31.700961894323356,22.149999999999977 M 31.55111126056638,21.788228567653803 M 31.499999999999993,21.400000000000013 M 31.551111260566415,21.0117714323462 M 31.700961894323342,20.64999999999999 M 31.9393398282202,20.33933982822018 M 32.250000000000014,20.10096189432334 M 32.61177143234621,19.951111260566414 M 32.99999999999999,19.900000000000006 M 33.38822856765379,19.9511112605664 M 33.750000000000014,20.100961894323355 M 34.06066017177982,20.33933982822018 M 34.299038105676644,20.650000000000006 M 34.448888739433606,21.011771432346226 M 34.5,21.400000000000002 M 34.44888873943361,21.788228567653782 M 34.299038105676644,22.150000000000002 M 34.06066017177983,22.460660171779814 M 33.750000000000014,22.699038105676653 M 33.388228567653805,22.848888739433594 "
  />
  <path id="face1-interior"
 style="fill:none;stroke:#00FF00;stroke-width:0.1;stroke-miterlimit:4;stroke-dasharray:none;stroke-linejoin:round;stroke-linecap:round"
        d="M 28.000000000000014,55.59999999999998 M 10.000000000000012,55.59999999999998 M 10.000000000000012,80.60000000000001 M 28.000000000000007,80.60000000000002 M 20.442200000000035,59.98458461347499 M 19.963384766560367,59.92154739210978 M 19.517200000000038,59.73673161047617 M 19.134052454804916,59.44273215867008 M 18.840053002998815,59.05958461347498 M 18.655237221365248,58.61339984691466 M 18.592200000000048,58.13458461347494 M 18.65523722136526,57.655769380035316 M 18.840053002998815,57.20958461347499 M 19.134052454804916,56.82643706827989 M 19.51720000000003,56.53243761647378 M 19.96338476656038,56.347621834840176 M 20.442200000000035,56.28458461347497 M 20.921015233439697,56.3476218348402 M 21.36720000000004,56.532437616473786 M 21.75034754519516,56.826437068279866 M 22.044346997001234,57.20958461347497 M 22.22916277863481,57.65576938003531 M 22.292200000000022,58.134584613474956 M 22.229162778634795,58.61339984691466 M 22.044346997001234,59.05958461347497 M 21.750347545195147,59.44273215867007 M 21.367200000000025,59.736731610476184 M 20.921015233439697,59.92154739210976 M 18.592200000000034,78.10999999999991 M 18.65523722136526,77.6311847665603 M 18.840053002998815,77.18499999999999 M 19.134052454804916,76.80185245480483 M 19.517200000000038,76.50785300299883 M 19.963384766560367,76.32303722136518 M 20.442200000000035,76.25999999999999 M 20.921015233439697,76.3230372213652 M 21.36720000000004,76.50785300299877 M 21.750347545195147,76.80185245480486 M 22.04434699700125,77.18499999999996 M 22.229162778634816,77.63118476656031 M 22.292200000000037,78.10999999999993 M 22.229162778634816,78.58881523343968 M 22.04434699700125,79.03500000000003 M 21.750347545195147,79.41814754519504 M 21.36720000000004,79.71214699700117 M 20.921015233439697,79.89696277863477 M 20.442200000000035,79.95999999999998 M 19.963384766560367,79.89696277863474 M 19.517200000000038,79.71214699700118 M 19.134052454804916,79.41814754519511 M 18.840053002998815,79.035 M 18.65523722136526,78.58881523343968 "
  />
  <path id="face2-interior"
 style="fill:none;stroke:#00FF00;stroke-width:0.1;stroke-miterlimit:4;stroke-dasharray:none;stroke-linejoin:round;stroke-linecap:round"
        d="M 10.000000000000023,21.400000000000002 M 10.000000000000012,46.400000000000034 M 27.999999999999993,46.400000000000034 M 28.0,21.400000000000013 M 22.29220000000003,23.984584613475022 M 22.229162778634823,24.46339984691469 M 22.044346997001227,24.90958461347504 M 21.75034754519516,25.29273215867013 M 21.367200000000025,25.58673161047625 M 20.92101523343971,25.771547392109795 M 20.442200000000035,25.83458461347502 M 19.963384766560367,25.771547392109795 M 19.517200000000038,25.58673161047625 M 19.134052454804923,25.29273215867014 M 18.840053002998808,24.909584613475072 M 18.65523722136527,24.463399846914676 M 18.592200000000034,23.984584613475022 M 18.65523722136527,23.505769380035357 M 18.840053002998815,23.059584613475018 M 19.134052454804923,22.676437068279927 M 19.51720000000003,22.38243761647382 M 19.963384766560367,22.197621834840252 M 20.442200000000035,22.13458461347505 M 20.92101523343971,22.197621834840252 M 21.367200000000025,22.38243761647383 M 21.75034754519514,22.676437068279927 M 22.044346997001227,23.05958461347503 M 22.229162778634823,23.505769380035368 M 18.655237221365248,44.43881523343971 M 18.592200000000034,43.96000000000001 M 18.65523722136527,43.48118476656036 M 18.840053002998808,43.03500000000005 M 19.134052454804916,42.651852454804896 M 19.517200000000052,42.35785300299882 M 19.963384766560367,42.173037221365256 M 20.442200000000035,42.11000000000003 M 20.92101523343971,42.17303722136524 M 21.367200000000025,42.35785300299885 M 21.750347545195147,42.651852454804896 M 22.044346997001256,43.03500000000004 M 22.22916277863483,43.48118476656036 M 22.292200000000037,43.96000000000001 M 22.229162778634816,44.43881523343972 M 22.04434699700125,44.885000000000026 M 21.750347545195147,45.26814754519512 M 21.367200000000047,45.56214699700122 M 20.92101523343969,45.746962778634845 M 20.442200000000035,45.81000000000006 M 19.963384766560367,45.746962778634824 M 19.517200000000038,45.56214699700124 M 19.134052454804916,45.26814754519512 M 18.840053002998815,44.88500000000002 "
  />
</svg>
