<?xml version="1.0" standalone="no"?>
<!DOCTYPE svg PUBLIC "-//W3C//DTD SVG 1.1//EN" "http://www.w3.org/Graphics/SVG/1.1/DTD/svg11.dtd">
<svg width="46.00000000000005mm" height="96.0mm"
 viewBox="0 0 46.00000000000005 96.0"
 xmlns="http://www.w3.org/2000/svg" version="1.1"
 xmlns:xlink="http://www.w3.org/1999/xlink">
<desc>Output from Flights of Ideas SVG Sketchup Plugin</desc>

  <path id="face0-cut"
 style="fill:none;stroke:#0000FF;stroke-width:0.1;stroke-miterlimit:4;stroke-dasharray:none;stroke-linejoin:round;stroke-linecap:round"
        d="M 26.634995083691585,78.10000000000004 L 12.999999999999993,78.10000000000004 L 13.000000000000007,78.59999999999995 L 10.0,78.6 L 10.000000000000043,82.00000000000006 L 13.000000000000043,82.0 L 13.00000000000005,86.0 L 33.000000000000064,85.99999999999994 L 33.000000000000036,72.79999999999993 L 36.00000000000005,72.79999999999993 L 36.00000000000005,57.744255948273576 L 33.000000000000036,57.744255948273576 L 33.00000000000005,37.99999999999994 L 36.00000000000005,37.99999999999994 L 36.00000000000005,22.99999999999997 L 33.00000000000005,22.999999999999986 L 33.000000000000036,10.0 L 13.00000000000005,10.0 L 13.00000000000005,13.999999999999986 L 10.000000000000043,13.999999999999986 L 10.000000000000043,17.39999999999592 L 13.000000000000028,17.39999999999592 L 13.00000000000005,17.899999999995906 L 26.63499508369157,17.899999999995963 L 27.11564136348577,18.00249773560629 L 27.57203307464716,18.18479759317188 L 27.99102482116985,18.44164881164508 L 28.360548433767327,18.765653336024158 L 28.66996056791279,19.147478902649567 L 28.910349262821377,19.576127835280253 L 29.074790631593793,20.039253809850365 L 29.158548289104182,20.523517464168577 L 29.15854828910424,41.351517464168495 L 29.06094576844111,41.81531282917136 L 28.88632015071105,42.255924093519404 L 28.639701156747698,42.66066038353348 L 28.328192124010634,43.017864128140346 L 27.960765410004747,43.31724683050088 L 27.548003962536846,43.550185406357514 L 27.101796500333087,43.709970553701034 L 26.634995083691628,43.79199999999593 L 13.000000000000043,43.79199999999588 L 13.000000000000043,44.2919999999959 L 10.000000000000043,44.291999999995845 L 10.0,51.707999999999956 L 12.999999999999993,51.708 L 12.999999999999993,52.20799999999998 L 26.63499508369157,52.20800000000002 L 27.115641363485757,52.3104977356103 L 27.572033074647145,52.492797593175936 L 27.991024821169837,52.74964881164916 L 28.3605484337673,53.073653336028215 L 28.66996056791279,53.45547890265361 L 28.910349262821363,53.88412783528432 L 29.07479063159378,54.34725380985445 L 29.158548289104182,54.83151746417256 L 29.158548289104168,75.65951746417258 L 29.06094576844101,76.1233128291754 L 28.886320150710993,76.56392409352351 L 28.639701156747627,76.9686603835375 L 28.32819212401059,77.3258641281444 L 27.960765410004676,77.62524683050498 L 27.548003962536804,77.85818540636161 L 27.10179650033303,78.0179705537051 L 26.634995083691585,78.10000000000004 "
  />
  <path id="face0-interior"
 style="fill:none;stroke:#FF0000;stroke-width:0.1;stroke-miterlimit:4;stroke-dasharray:none;stroke-linejoin:round;stroke-linecap:round"
        d="M 26.634995083691585,78.10000000000004 M 12.999999999999993,78.10000000000004 M 13.000000000000007,78.59999999999995 M 10.0,78.6 M 10.000000000000043,82.00000000000006 M 13.000000000000043,82.0 M 13.00000000000005,86.0 M 33.000000000000064,85.99999999999994 M 33.000000000000036,72.79999999999993 M 36.00000000000005,72.79999999999993 M 36.00000000000005,57.744255948273576 M 33.000000000000036,57.744255948273576 M 33.00000000000005,37.99999999999994 M 36.00000000000005,37.99999999999994 M 36.00000000000005,22.99999999999997 M 33.00000000000005,22.999999999999986 M 33.000000000000036,10.0 M 13.00000000000005,10.0 M 13.00000000000005,13.999999999999986 M 10.000000000000043,13.999999999999986 M 10.000000000000043,17.39999999999592 M 13.000000000000028,17.39999999999592 M 13.00000000000005,17.899999999995906 M 26.63499508369157,17.899999999995963 M 27.11564136348577,18.00249773560629 M 27.57203307464716,18.18479759317188 M 27.99102482116985,18.44164881164508 M 28.360548433767327,18.765653336024158 M 28.66996056791279,19.147478902649567 M 28.910349262821377,19.576127835280253 M 29.074790631593793,20.039253809850365 M 29.158548289104182,20.523517464168577 M 29.15854828910424,41.351517464168495 M 29.06094576844111,41.81531282917136 M 28.88632015071105,42.255924093519404 M 28.639701156747698,42.66066038353348 M 28.328192124010634,43.017864128140346 M 27.960765410004747,43.31724683050088 M 27.548003962536846,43.550185406357514 M 27.101796500333087,43.709970553701034 M 26.634995083691628,43.79199999999593 M 13.000000000000043,43.79199999999588 M 13.000000000000043,44.2919999999959 M 10.000000000000043,44.291999999995845 M 10.0,51.707999999999956 M 12.999999999999993,51.708 M 12.999999999999993,52.20799999999998 M 26.63499508369157,52.20800000000002 M 27.115641363485757,52.3104977356103 M 27.572033074647145,52.492797593175936 M 27.991024821169837,52.74964881164916 M 28.3605484337673,53.073653336028215 M 28.66996056791279,53.45547890265361 M 28.910349262821363,53.88412783528432 M 29.07479063159378,54.34725380985445 M 29.158548289104182,54.83151746417256 M 29.158548289104168,75.65951746417258 M 29.06094576844101,76.1233128291754 M 28.886320150710993,76.56392409352351 M 28.639701156747627,76.9686603835375 M 28.32819212401059,77.3258641281444 M 27.960765410004676,77.62524683050498 M 27.548003962536804,77.85818540636161 M 27.10179650033303,78.0179705537051 "
  />
  <path id="face0-interior"
 style="fill:none;stroke:#00FF00;stroke-width:0.1;stroke-miterlimit:4;stroke-dasharray:none;stroke-linejoin:round;stroke-linecap:round"
        d="M 26.634995083691585,78.10000000000004 M 12.999999999999993,78.10000000000004 M 13.000000000000007,78.59999999999995 M 10.0,78.6 M 10.000000000000043,82.00000000000006 M 13.000000000000043,82.0 M 13.00000000000005,86.0 M 33.000000000000064,85.99999999999994 M 33.000000000000036,72.79999999999993 M 36.00000000000005,72.79999999999993 M 36.00000000000005,57.744255948273576 M 33.000000000000036,57.744255948273576 M 33.00000000000005,37.99999999999994 M 36.00000000000005,37.99999999999994 M 36.00000000000005,22.99999999999997 M 33.00000000000005,22.999999999999986 M 33.000000000000036,10.0 M 13.00000000000005,10.0 M 13.00000000000005,13.999999999999986 M 10.000000000000043,13.999999999999986 M 10.000000000000043,17.39999999999592 M 13.000000000000028,17.39999999999592 M 13.00000000000005,17.899999999995906 M 26.63499508369157,17.899999999995963 M 27.11564136348577,18.00249773560629 M 27.57203307464716,18.18479759317188 M 27.99102482116985,18.44164881164508 M 28.360548433767327,18.765653336024158 M 28.66996056791279,19.147478902649567 M 28.910349262821377,19.576127835280253 M 29.074790631593793,20.039253809850365 M 29.158548289104182,20.523517464168577 M 29.15854828910424,41.351517464168495 M 29.06094576844111,41.81531282917136 M 28.88632015071105,42.255924093519404 M 28.639701156747698,42.66066038353348 M 28.328192124010634,43.017864128140346 M 27.960765410004747,43.31724683050088 M 27.548003962536846,43.550185406357514 M 27.101796500333087,43.709970553701034 M 26.634995083691628,43.79199999999593 M 13.000000000000043,43.79199999999588 M 13.000000000000043,44.2919999999959 M 10.000000000000043,44.291999999995845 M 10.0,51.707999999999956 M 12.999999999999993,51.708 M 12.999999999999993,52.20799999999998 M 26.63499508369157,52.20800000000002 M 27.115641363485757,52.3104977356103 M 27.572033074647145,52.492797593175936 M 27.991024821169837,52.74964881164916 M 28.3605484337673,53.073653336028215 M 28.66996056791279,53.45547890265361 M 28.910349262821363,53.88412783528432 M 29.07479063159378,54.34725380985445 M 29.158548289104182,54.83151746417256 M 29.158548289104168,75.65951746417258 M 29.06094576844101,76.1233128291754 M 28.886320150710993,76.56392409352351 M 28.639701156747627,76.9686603835375 M 28.32819212401059,77.3258641281444 M 27.960765410004676,77.62524683050498 M 27.548003962536804,77.85818540636161 M 27.10179650033303,78.0179705537051 "
  />
</svg>
