<?xml version="1.0" standalone="no"?>
<!DOCTYPE svg PUBLIC "-//W3C//DTD SVG 1.1//EN" "http://www.w3.org/Graphics/SVG/1.1/DTD/svg11.dtd">
<svg width="46.0mm" height="77.0mm"
 viewBox="0 0 46.0 77.0"
 xmlns="http://www.w3.org/2000/svg" version="1.1"
 xmlns:xlink="http://www.w3.org/1999/xlink">
<desc>Output from Flights of Ideas SVG Sketchup Plugin</desc>

  <path id="face0-cut"
 style="fill:none;stroke:#0000FF;stroke-width:1;stroke-miterlimit:4;stroke-dasharray:none;stroke-linejoin:round;stroke-linecap:round"
        d="M 10.0,29.999999999999996 L 13.0,29.999999999999996 L 13.0,47.0 L 10.0,47.0 L 10.0,57.0 L 13.000000000000014,57.0 L 13.000000000000014,67.0 L 33.0,67.0 L 33.0,57.0 L 36.0,56.99999999999999 L 36.0,47.00000000000001 L 33.0,46.99999999999999 L 33.0,29.999999999999996 L 36.0,29.999999999999996 L 36.0,19.999999999999986 L 33.0,20.0 L 33.0,10.000000000000005 L 13.0,10.0 L 13.0,20.0 L 10.0,20.0 L 10.0,29.999999999999996 "
  />
  <path id="face0-interior"
 style="fill:none;stroke:#FF0000;stroke-width:1;stroke-miterlimit:4;stroke-dasharray:none;stroke-linejoin:round;stroke-linecap:round"
        d="M 10.0,29.999999999999996 M 13.0,29.999999999999996 M 13.0,47.0 M 10.0,47.0 M 10.0,57.0 M 13.000000000000014,57.0 M 13.000000000000014,67.0 M 33.0,67.0 M 33.0,57.0 M 36.0,56.99999999999999 M 36.0,47.00000000000001 M 33.0,46.99999999999999 M 33.0,29.999999999999996 M 36.0,29.999999999999996 M 36.0,19.999999999999986 M 33.0,20.0 M 33.0,10.000000000000005 M 13.0,10.0 M 13.0,20.0 M 10.0,20.0 "
  />
  <path id="face0-interior"
 style="fill:none;stroke:#00FF00;stroke-width:1;stroke-miterlimit:4;stroke-dasharray:none;stroke-linejoin:round;stroke-linecap:round"
        d="M 10.0,29.999999999999996 M 13.0,29.999999999999996 M 13.0,47.0 M 10.0,47.0 M 10.0,57.0 M 13.000000000000014,57.0 M 13.000000000000014,67.0 M 33.0,67.0 M 33.0,57.0 M 36.0,56.99999999999999 M 36.0,47.00000000000001 M 33.0,46.99999999999999 M 33.0,29.999999999999996 M 36.0,29.999999999999996 M 36.0,19.999999999999986 M 33.0,20.0 M 33.0,10.000000000000005 M 13.0,10.0 M 13.0,20.0 M 10.0,20.0 "
  />
</svg>
