  0
SECTION
  2
HEADER
  9
$ACADVER
  1
AC1009
  9
$EXTMIN
 10
0.0
 20
0.0
 30
0.0
  9
$EXTMAX
 10
1000.0
 20
1000.0
 30
0.0
  9
$FILLMODE
 70
 0
  9
$SPLFRAME
 70
 1
  0
ENDSEC
  0
SECTION
  2
TABLES
  0
TABLE
  2
LAYER
 70
1
  0
LAYER
  2
0
 70
     0
 62
     7
  6
CONTINUOUS
  0
ENDTAB
  0
ENDSEC
  0
SECTION
  2
ENTITIES
  0
POLYLINE
  8
0
 62
     5
 66
     1
 10
0
 20
0
 30
0.0
 70
     1
 40
0.283465
 41
0.283465
  0
VERTEX
  8
0
 10
1.04861
 20
0.716851
 30
0.0
 40
0.00393701
 41
0.00393701
  0
VERTEX
  8
0
 10
0.511828
 20
0.716851
 30
0.0
 40
0.00393701
 41
0.00393701
  0
VERTEX
  8
0
 10
0.511828
 20
0.697157
 30
0.0
 40
0.00393701
 41
0.00393701
  0
VERTEX
  8
0
 10
0.393718
 20
0.697157
 30
0.0
 40
0.00393701
 41
0.00393701
  0
VERTEX
  8
0
 10
0.393718
 20
0.563314
 30
0.0
 40
0.00393701
 41
0.00393701
  0
VERTEX
  8
0
 10
0.511828
 20
0.563314
 30
0.0
 40
0.00393701
 41
0.00393701
  0
VERTEX
  8
0
 10
0.511828
 20
0.405817
 30
0.0
 40
0.00393701
 41
0.00393701
  0
VERTEX
  8
0
 10
1.29921
 20
0.405817
 30
0.0
 40
0.00393701
 41
0.00393701
  0
VERTEX
  8
0
 10
1.29921
 20
0.92551
 30
0.0
 40
0.00393701
 41
0.00393701
  0
VERTEX
  8
0
 10
1.41732
 20
0.92551
 30
0.0
 40
0.00393701
 41
0.00393701
  0
VERTEX
  8
0
 10
1.41732
 20
1.51828
 30
0.0
 40
0.00393701
 41
0.00393701
  0
VERTEX
  8
0
 10
1.29921
 20
1.51828
 30
0.0
 40
0.00393701
 41
0.00393701
  0
VERTEX
  8
0
 10
1.29921
 20
2.29563
 30
0.0
 40
0.00393701
 41
0.00393701
  0
VERTEX
  8
0
 10
1.41732
 20
2.29563
 30
0.0
 40
0.00393701
 41
0.00393701
  0
VERTEX
  8
0
 10
1.41732
 20
2.88618
 30
0.0
 40
0.00393701
 41
0.00393701
  0
VERTEX
  8
0
 10
1.29921
 20
2.88618
 30
0.0
 40
0.00393701
 41
0.00393701
  0
VERTEX
  8
0
 10
1.29921
 20
3.39794
 30
0.0
 40
0.00393701
 41
0.00393701
  0
VERTEX
  8
0
 10
0.511828
 20
3.39794
 30
0.0
 40
0.00393701
 41
0.00393701
  0
VERTEX
  8
0
 10
0.511828
 20
3.2405
 30
0.0
 40
0.00393701
 41
0.00393701
  0
VERTEX
  8
0
 10
0.393718
 20
3.2405
 30
0.0
 40
0.00393701
 41
0.00393701
  0
VERTEX
  8
0
 10
0.393718
 20
3.10661
 30
0.0
 40
0.00393701
 41
0.00393701
  0
VERTEX
  8
0
 10
0.511828
 20
3.10661
 30
0.0
 40
0.00393701
 41
0.00393701
  0
VERTEX
  8
0
 10
0.511828
 20
3.08697
 30
0.0
 40
0.00393701
 41
0.00393701
  0
VERTEX
  8
0
 10
1.04861
 20
3.08697
 30
0.0
 40
0.00393701
 41
0.00393701
  0
VERTEX
  8
0
 10
1.06755
 20
3.0829
 30
0.0
 40
0.00393701
 41
0.00393701
  0
VERTEX
  8
0
 10
1.0855
 20
3.07574
 30
0.0
 40
0.00393701
 41
0.00393701
  0
VERTEX
  8
0
 10
1.102
 20
3.0656
 30
0.0
 40
0.00393701
 41
0.00393701
  0
VERTEX
  8
0
 10
1.11654
 20
3.05285
 30
0.0
 40
0.00393701
 41
0.00393701
  0
VERTEX
  8
0
 10
1.12874
 20
3.03782
 30
0.0
 40
0.00393701
 41
0.00393701
  0
VERTEX
  8
0
 10
1.13818
 20
3.02094
 30
0.0
 40
0.00393701
 41
0.00393701
  0
VERTEX
  8
0
 10
1.14469
 20
3.00271
 30
0.0
 40
0.00393701
 41
0.00393701
  0
VERTEX
  8
0
 10
1.14795
 20
2.98367
 30
0.0
 40
0.00393701
 41
0.00393701
  0
VERTEX
  8
0
 10
1.14795
 20
2.16363
 30
0.0
 40
0.00393701
 41
0.00393701
  0
VERTEX
  8
0
 10
1.14415
 20
2.1454
 30
0.0
 40
0.00393701
 41
0.00393701
  0
VERTEX
  8
0
 10
1.13726
 20
2.12804
 30
0.0
 40
0.00393701
 41
0.00393701
  0
VERTEX
  8
0
 10
1.12755
 20
2.11208
 30
0.0
 40
0.00393701
 41
0.00393701
  0
VERTEX
  8
0
 10
1.11529
 20
2.09804
 30
0.0
 40
0.00393701
 41
0.00393701
  0
VERTEX
  8
0
 10
1.1008
 20
2.08626
 30
0.0
 40
0.00393701
 41
0.00393701
  0
VERTEX
  8
0
 10
1.08458
 20
2.0771
 30
0.0
 40
0.00393701
 41
0.00393701
  0
VERTEX
  8
0
 10
1.067
 20
2.07081
 30
0.0
 40
0.00393701
 41
0.00393701
  0
VERTEX
  8
0
 10
1.04861
 20
2.06754
 30
0.0
 40
0.00393701
 41
0.00393701
  0
VERTEX
  8
0
 10
0.511828
 20
2.06754
 30
0.0
 40
0.00393701
 41
0.00393701
  0
VERTEX
  8
0
 10
0.511828
 20
2.0479
 30
0.0
 40
0.00393701
 41
0.00393701
  0
VERTEX
  8
0
 10
0.393718
 20
2.0479
 30
0.0
 40
0.00393701
 41
0.00393701
  0
VERTEX
  8
0
 10
0.393718
 20
1.75592
 30
0.0
 40
0.00393701
 41
0.00393701
  0
VERTEX
  8
0
 10
0.511828
 20
1.75592
 30
0.0
 40
0.00393701
 41
0.00393701
  0
VERTEX
  8
0
 10
0.511828
 20
1.73622
 30
0.0
 40
0.00393701
 41
0.00393701
  0
VERTEX
  8
0
 10
1.04861
 20
1.73622
 30
0.0
 40
0.00393701
 41
0.00393701
  0
VERTEX
  8
0
 10
1.06755
 20
1.73221
 30
0.0
 40
0.00393701
 41
0.00393701
  0
VERTEX
  8
0
 10
1.0855
 20
1.72504
 30
0.0
 40
0.00393701
 41
0.00393701
  0
VERTEX
  8
0
 10
1.102
 20
1.7149
 30
0.0
 40
0.00393701
 41
0.00393701
  0
VERTEX
  8
0
 10
1.11654
 20
1.70215
 30
0.0
 40
0.00393701
 41
0.00393701
  0
VERTEX
  8
0
 10
1.12874
 20
1.68713
 30
0.0
 40
0.00393701
 41
0.00393701
  0
VERTEX
  8
0
 10
1.13818
 20
1.67025
 30
0.0
 40
0.00393701
 41
0.00393701
  0
VERTEX
  8
0
 10
1.14469
 20
1.65201
 30
0.0
 40
0.00393701
 41
0.00393701
  0
VERTEX
  8
0
 10
1.14795
 20
1.63292
 30
0.0
 40
0.00393701
 41
0.00393701
  0
VERTEX
  8
0
 10
1.14795
 20
0.812935
 30
0.0
 40
0.00393701
 41
0.00393701
  0
VERTEX
  8
0
 10
1.14415
 20
0.794706
 30
0.0
 40
0.00393701
 41
0.00393701
  0
VERTEX
  8
0
 10
1.13726
 20
0.777344
 30
0.0
 40
0.00393701
 41
0.00393701
  0
VERTEX
  8
0
 10
1.12755
 20
0.761393
 30
0.0
 40
0.00393701
 41
0.00393701
  0
VERTEX
  8
0
 10
1.11529
 20
0.747342
 30
0.0
 40
0.00393701
 41
0.00393701
  0
VERTEX
  8
0
 10
1.1008
 20
0.735568
 30
0.0
 40
0.00393701
 41
0.00393701
  0
VERTEX
  8
0
 10
1.08458
 20
0.7264
 30
0.0
 40
0.00393701
 41
0.00393701
  0
VERTEX
  8
0
 10
1.067
 20
0.720107
 30
0.0
 40
0.00393701
 41
0.00393701
  0
VERTEX
  8
0
 10
1.04861
 20
0.716851
 30
0.0
 40
0.00393701
 41
0.00393701
  0
SEQEND
 8
0
  0
ENDSEC
  0
EOF
