<?xml version="1.0" standalone="no"?>
<!DOCTYPE svg PUBLIC "-//W3C//DTD SVG 1.1//EN" "http://www.w3.org/Graphics/SVG/1.1/DTD/svg11.dtd">
<svg width="45.999976666530756mm" height="90.00000000000007mm"
 viewBox="0 0 45.999976666530756 90.00000000000007"
 xmlns="http://www.w3.org/2000/svg" version="1.1"
 xmlns:xlink="http://www.w3.org/1999/xlink">
<desc>Output from Flights of Ideas SVG Sketchup Plugin</desc>

  <path id="face0-cut"
 style="fill:none;stroke:#0000FF;stroke-width:0.1;stroke-miterlimit:4;stroke-dasharray:none;stroke-linejoin:round;stroke-linecap:round"
        d="M 10.0,35.20000000000004 L 13.0,35.20000000000004 L 13.0,55.00000000000004 L 10.0,55.00000000000004 L 10.0,70.00000000000007 L 13.0,70.00000000000007 L 13.0,80.00000000000007 L 33.0,80.00000000000007 L 33.0,70.00000000000007 L 35.99997523796213,69.99138109633088 L 35.99997523796213,54.99138109633087 L 33.0,55.00000000000004 L 33.0,35.20000000000004 L 35.999976666530756,35.20000000000004 L 35.99997523796213,20.191381096330836 L 33.0,20.200000000000067 L 33.0,10.000000000000028 L 13.0,10.0 L 13.0,20.200000000000024 L 10.0,20.200000000000024 L 10.0,35.20000000000004 M 16.0,72.00000000000006 L 16.0,58.00000000000004 L 30.0,58.00000000000004 L 30.0,72.00000000000006 L 16.0,72.00000000000006 M 24.060660171779844,18.439339828220206 L 24.299038105676665,18.749999999999993 L 24.44888873943364,19.111771432346295 L 24.500000000000014,19.500000000000007 L 24.44888873943364,19.88822856765372 L 24.299038105676665,20.25000000000002 L 24.060660171779844,20.56066017177981 L 23.750000000000007,20.799038105676594 L 23.388228567653798,20.94888873943352 L 22.999999999999993,21.00000000000002 L 22.611771432346252,20.94888873943352 L 22.249999999999986,20.799038105676587 L 21.93933982822015,20.5606601717798 L 21.70096189432332,20.250000000000007 L 21.551111260566394,19.88822856765372 L 21.49999999999998,19.500000000000014 L 21.551111260566394,19.111771432346295 L 21.700961894323335,18.75 L 21.93933982822015,18.439339828220206 L 22.249999999999986,18.200961894323427 L 22.611771432346238,18.051111260566493 L 22.999999999999993,17.999999999999986 L 23.388228567653798,18.051111260566493 L 23.750000000000007,18.200961894323427 L 24.060660171779844,18.439339828220206 M 23.750000000000007,45.7009618943233 L 24.06066017177985,45.939339828220085 L 24.299038105676665,46.2499999999999 L 24.44888873943364,46.61177143234619 L 24.500000000000014,46.9999999999999 L 24.44888873943364,47.3882285676538 L 24.299038105676665,47.749999999999915 L 24.060660171779844,48.06066017177989 L 23.750000000000007,48.29903810567667 L 23.388228567653798,48.4488887394336 L 22.999999999999993,48.49999999999993 L 22.611771432346238,48.4488887394336 L 22.249999999999986,48.29903810567667 L 21.939339828220163,48.06066017177989 L 21.70096189432332,47.749999999999915 L 21.551111260566394,47.3882285676538 L 21.49999999999998,46.9999999999999 L 21.551111260566394,46.61177143234619 L 21.70096189432332,46.2499999999999 L 21.93933982822015,45.939339828220085 L 22.249999999999986,45.7009618943233 L 22.611771432346238,45.55111126056637 L 22.999999999999993,45.49999999999986 L 23.388228567653798,45.55111126056637 L 23.750000000000007,45.7009618943233 M 28.500000000000007,22.24999999999993 L 28.500000000000007,44.24999999999997 L 17.499999999999993,44.24999999999997 L 17.499999999999986,22.249999999999915 L 28.500000000000007,22.24999999999993 M 25.801111260566394,53.3882285676537 L 25.75,52.999999999999915 L 25.801111260566394,52.61177143234612 L 25.950961894323335,52.2499999999999 L 26.189339828220177,51.93933982822011 L 26.5,51.70096189432324 L 26.861771432346224,51.551111260566316 L 27.25,51.4999999999999 L 27.638228567653776,51.551111260566316 L 28.0,51.70096189432324 L 28.310660171779823,51.93933982822011 L 28.549038105676658,52.2499999999999 L 28.6988887394336,52.61177143234612 L 28.750000000000007,52.999999999999915 L 28.6988887394336,53.3882285676537 L 28.549038105676658,53.7499999999999 L 28.310660171779823,54.060660171779745 L 28.0,54.29903810567657 L 27.63822856765379,54.448888739433514 L 27.25,54.499999999999915 L 26.861771432346224,54.448888739433514 L 26.499999999999986,54.29903810567657 L 26.189339828220177,54.060660171779745 L 25.950961894323335,53.7499999999999 L 25.801111260566394,53.3882285676537 M 20.198888739433606,52.61177143234612 L 20.25,52.999999999999915 L 20.198888739433606,53.3882285676537 L 20.049038105676665,53.7499999999999 L 19.81066017177983,54.060660171779745 L 19.5,54.29903810567657 L 19.138228567653783,54.448888739433514 L 18.75,54.499999999999915 L 18.361771432346224,54.448888739433514 L 18.000000000000007,54.29903810567657 L 17.689339828220177,54.060660171779745 L 17.450961894323342,53.7499999999999 L 17.3011112605664,53.3882285676537 L 17.249999999999993,52.999999999999915 L 17.301111260566387,52.61177143234612 L 17.450961894323342,52.2499999999999 L 17.689339828220177,51.93933982822011 L 18.000000000000007,51.70096189432324 L 18.361771432346217,51.551111260566316 L 18.75,51.4999999999999 L 19.138228567653783,51.551111260566316 L 19.5,51.70096189432324 L 19.81066017177983,51.93933982822011 L 20.049038105676665,52.2499999999999 L 20.198888739433606,52.61177143234612 M 29.704367347900245,55.11190649095897 M 29.709605614183772,55.042222587873454 M 29.72532041303434,54.98068044668952 M 29.75151174445196,54.927280067396595 M 29.78817960843665,54.8820214499853 M 29.836162127593724,54.84598218057599 M 29.896297424528584,54.820239845289535 M 29.96858549924123,54.80479444412002 M 30.053026351731646,54.79964597706393 M 30.645938229126287,54.79964597706392 M 30.645938229126287,54.67799847644733 M 30.79536351648261,54.67799847644733 M 30.79536351648261,54.79964597706392 M 31.10283478085043,54.79964597706392 M 31.10283478085043,54.979722592352246 M 30.79536351648261,54.979722592352246 M 30.79536351648261,55.31114019344123 M 30.645938229126287,55.31114019344122 M 30.645938229126287,54.979722592352246 M 30.137317539471127,54.979722592352246 M 30.01183861226805,54.98259615536409 M 29.929463133340846,55.00462680512358 M 29.90012884215311,55.0259390641334 M 29.879175777019015,55.05730879369314 M 29.862413324911728,55.155967790522325 M 29.87534435939449,55.24121682667297 M 29.896896083532425,55.300603795706834 M 29.735018688896417,55.31114019344123 M 29.712509110352343,55.20817085197929 M 30.288658535639698,53.50750048447489 M 30.161832625678016,53.49950838744468 M 30.048596275103307,53.47553209635758 M 29.94894948391557,53.435571611224205 M 29.862892252114804,53.37962693206235 M 29.79353760652093,53.31146961029809 M 29.743998573953874,53.234871197353314 M 29.714275154413656,53.14983169324728 M 29.704367347900245,53.056351098001784 M 29.722566581616718,52.91554651281942 M 29.7790799915784,52.79006759694144 M 29.33080412950943,52.79006759694143 M 29.33080412950943,52.60999098512697 M 30.79536351648261,52.60999098512697 M 30.79536351648261,52.79006759694144 M 30.68329455096537,52.79006759694143 M 30.738730374720177,52.86082908478795 M 30.78434819081211,52.93901394366934 M 30.814879800007517,53.02462217360244 M 30.825057003072658,53.11765377460523 M 30.815957386214407,53.20454912143562 M 30.788658535639712,53.281327132043884 M 30.743160451348515,53.347987806407005 M 30.67946313334086,53.40453114450533 M 30.600440144835105,53.44958023072995 M 30.508965049049664,53.481758149473336 M 30.405037845984538,53.50106490072393 M 29.725440144835105,54.527615345919784 M 29.725440144835105,54.34753873125271 M 29.84421409119527,54.34753873125271 M 29.780157577785303,54.266360576587076 M 29.733581907287217,54.189492766466245 M 29.705205470505604,54.11046978414964 M 29.69574665824507,54.02282611291383 M 29.701493784681844,53.95493818728794 M 29.718735163992193,53.8911211425996 M 29.748428650582227,53.833290687499584 M 29.7915320988581,53.783362530635344 M 29.84780604521825,53.742533989906505 M 29.91701102606116,53.71200238321269 M 30.00082328659755,53.692965028454864 M 30.100919072038167,53.68661924353633 M 30.79536351648261,53.68661924353633 M 30.79536351648261,53.86669585721221 M 30.186168114183758,53.86669585721222 M 30.044884589279548,53.8729219103497 M 29.946704512651195,53.901178613054725 M 29.911024436022842,53.92716041173452 M 29.88635968506499,53.961044508638935 M 29.87199186897304,54.00714124825957 M 29.86720259694239,54.069760975097694 M 29.87654167740216,54.138008096163205 M 29.90455891878146,54.21056556175938 M 29.99651294176998,54.34753873125271 M 30.79536351648261,54.34753873125271 M 30.79536351648261,54.527615345919784 M 29.725440144835105,51.29677272611535 M 29.725440144835105,50.74313294160817 M 29.871034014566902,50.74313294160817 M 29.871034014566902,50.925125257831155 M 31.006091485831263,50.925125257831155 M 31.006091485831277,50.74313294160817 M 31.151685355563075,50.74313294160817 M 31.15168535556309,51.29677272611535 M 31.006091485831277,51.296772726115336 M 31.006091485831277,51.11478040893107 M 29.871034014566902,51.11478040893107 M 29.871034014566902,51.29677272611535 M 29.725440144835105,52.357117445718245 M 29.725440144835105,52.1770408347535 M 30.334635547133956,52.1770408347535 M 30.47208765441364,52.16985692740883 M 30.57409914866652,52.14255807950455 M 30.609180566291045,52.116217085920866 M 30.633965049049664,52.081255403540425 M 30.648692060543922,52.0347994694406 M 30.653601064375337,51.97397572070925 M 30.644621179317866,51.90584833291089 M 30.617681524145453,51.835565772973794 M 30.52429071954775,51.696197971165304 M 29.725440144835105,51.696197971165304 M 29.725440144835105,51.51612136162977 M 30.79536351648261,51.516121361629786 M 30.79536351648261,51.696197971165304 M 30.67658957012246,51.696197971165304 M 30.740047424528584,51.776178805850776 M 30.786742826827435,51.85520178630625 M 30.81547845901136,51.93590101188012 M 30.825057003072658,52.02091058193116 M 30.81856155288108,52.09562321821561 M 30.79907520230637,52.16171516575231 M 30.766597951348515,52.219186424520814 M 30.721129800007517,52.268036994503646 M 30.6633292731876,52.307009691899054 M 30.59385489579296,52.33484733290625 M 30.512706667823622,52.3515499175147 M 30.419884589279548,52.357117445718245 M 15.195675750822232,54.85425686263109 M 15.204685568829888,54.73353728335215 M 15.231715022852875,54.62712565330776 M 15.276764112891193,54.535021972464605 M 15.33983283894483,54.457226240793105 M 15.419484419404604,54.395414703350454 M 15.51428207266131,54.351263605195726 M 15.624225798714953,54.324772946310375 M 15.749315597565527,54.315942726683176 M 15.873387676109587,54.32450354977935 M 15.984109658868206,54.35018601907146 M 16.081481545841385,54.39299013457003 M 16.16550333702913,54.45291589629248 M 16.233181737412274,54.52667067998972 M 16.28152345197165,54.61096186140985 M 16.31052848070729,54.70578944057279 M 16.320196823619163,54.81115341750039 M 16.31301291557319,54.905023142469304 M 16.291461191435253,54.98739861545461 M 16.254583796799245,55.05923769077276 M 16.201422877259006,55.12149822274512 M 16.13329548262299,55.172264502681486 M 16.05151866269962,55.20962082189155 M 15.952979390668972,55.23260932602574 M 15.834564639711118,55.240272160737916 M 15.736863490285835,55.240272160737916 M 15.736863490285835,54.49889290430653 M 15.64898034852338,54.50475976210117 M 15.572112532431419,54.522360335486766 M 15.506260042009963,54.55169462446807 M 15.451422877259013,54.59276262905311 M 15.408259563082765,54.64418743364662 M 15.377428624385445,54.70459212265364 M 15.358930061167058,54.77397669608631 M 15.352763873427591,54.85234115395832 M 15.366173835113415,54.96872045587804 M 15.400656593734112,55.07168979716501 M 15.443281114806908,55.154065270249376 M 15.482074218255178,55.20962082189155 M 15.285714064998473,55.22015721961927 M 15.254583796799245,55.14161316384978 M 15.225369237412266,55.05732198209711 M 15.203338586071268,54.96201547551783 M 15.22057996538161,51.965368220319846 M 15.220579965381617,51.77571306710033 M 16.44950716844675,51.77571306710033 M 15.613300271895028,51.404065596437704 M 15.613300271895028,51.289123080101945 M 16.44950716844675,50.920349174748836 M 15.220579965381617,50.920349174748836 M 15.220579965381617,50.74314613001154 M 16.64682517610958,50.74314613001154 M 16.64682517610958,51.00176679005175 M 15.852763873427591,51.35808858988223 M 16.64682517610958,51.70195828541186 M 16.64682517610958,51.965368220319846 M 15.220579965381617,54.129161132005535 M 15.22057996538161,53.949084517923524 M 15.329775367680469,53.949084517923524 M 15.271346248906518,53.876287588904646 M 15.229200655036792,53.80444851425982 M 15.200943950055944,53.72494660503881 M 15.190886478791576,53.62916117231673 M 15.199986095649813,53.54522918696175 M 15.227284946224529,53.467762718367226 M 15.272064639711118,53.39915640233205 M 15.333606785304987,53.341804874650464 M 15.412749505611501,53.29510947635221 M 15.508415214423763,53.2603872571182 M 15.620124984538698,53.23883553484082 M 15.747399888753257,53.231651627416014 M 15.87874567419388,53.24075124348752 M 15.991173835113415,53.26805009170678 M 16.08755793473027,53.311392999858995 M 16.17077153626284,53.36862479573362 M 16.233151804462075,53.4331602308676 M 16.28044586576476,53.50990830869313 M 16.310259084155568,53.59479814834771 M 16.320196823619163,53.68375886895829 M 16.302476517105752,53.82360560082739 M 16.247399888753264,53.94908451792354 M 16.71100142132032,53.949084517923524 M 16.71100142132031,54.129161132005535 M 15.7550627240023,53.1205405259757 M 15.627698020937174,53.11239876423696 M 15.51571885427051,53.0879734790246 M 15.419125224002308,53.04726467035037 M 15.337917130132574,52.99027233823405 M 15.273591220170886,52.91975031387453 M 15.227644141626826,52.83845242846989 M 15.200075894500387,52.746378682047805 M 15.190886478791576,52.6435290746405 M 15.200375224002308,52.537895703237865 M 15.228841459634495,52.44417564500435 M 15.276285185688131,52.36236889990511 M 15.342706402163223,52.29247546790893 M 15.425411143542533,52.236530789404256 M 15.521705444308822,52.19657030477981 M 15.631589304462075,52.17259401401397 M 15.7550627240023,52.164601917093464 M 15.88167910331265,52.17283347759212 M 15.993329007527208,52.19752815909273 M 16.090012436645985,52.23868596160919 M 16.171729390668965,52.296306885164654 M 16.23668389258468,52.36739763505726 M 16.28307996538161,52.44896491658214 M 16.31091760905978,52.54100872976659 M 16.320196823619163,52.6435290746405 M 16.310947542009977,52.746378682047805 M 16.28319969718239,52.83845242846989 M 16.2369532891364,52.91975031387453 M 16.17220831787204,52.99027233823405 M 16.090641028600004,53.04726467035037 M 15.993927666531043,53.0879734790246 M 15.882068231665144,53.11239876423696 "
  />
  <path id="face1-cut"
 style="fill:none;stroke:#0000FF;stroke-width:0.1;stroke-miterlimit:4;stroke-dasharray:none;stroke-linejoin:round;stroke-linecap:round"
        d="M 30.161832625678016,53.49950838744468 M 30.288658535639698,53.50750048447489 M 30.405037845984538,53.50106490072393 M 30.508965049049664,53.481758149473336 M 30.600440144835105,53.44958023072995 M 30.67946313334086,53.40453114450533 M 30.743160451348515,53.347987806407005 M 30.788658535639712,53.281327132043884 M 30.815957386214407,53.20454912143562 M 30.825057003072658,53.11765377460523 M 30.814879800007517,53.02462217360244 M 30.78434819081211,52.93901394366934 M 30.738730374720177,52.86082908478795 M 30.68329455096537,52.79006759694143 M 30.79536351648261,52.79006759694144 M 30.79536351648261,52.60999098512697 M 29.33080412950943,52.60999098512697 M 29.33080412950943,52.79006759694143 M 29.7790799915784,52.79006759694144 M 29.722566581616718,52.91554651281942 M 29.704367347900245,53.056351098001784 M 29.714275154413656,53.14983169324728 M 29.743998573953874,53.234871197353314 M 29.79353760652093,53.31146961029809 M 29.862892252114804,53.37962693206235 M 29.94894948391557,53.435571611224205 M 30.048596275103307,53.47553209635758 M 30.431019646750812,53.30706946699728 M 30.268543593110962,53.32167674543874 M 30.094932481999862,53.30228019537756 M 30.0259070988581,53.278034507806126 M 29.968735163992193,53.24409054521554 M 29.92389560460522,53.20140616193824 M 29.866244742536253,53.0266576140353 M 29.878696849815952,52.911236168378196 M 29.925631715716335,52.79006759694143 M 30.5319535547968,52.79006759694144 M 30.619597232957716,52.925603983182995 M 30.62833765441364,53.186619285828044 M 30.596758391961544,53.229483266784854 M 30.552547424528598,53.263247631685076 "
  />
  <path id="face2-cut"
 style="fill:none;stroke:#0000FF;stroke-width:0.1;stroke-miterlimit:4;stroke-dasharray:none;stroke-linejoin:round;stroke-linecap:round"
        d="M 29.725440144835105,50.74313294160817 M 29.725440144835105,51.29677272611535 M 29.871034014566902,51.29677272611535 M 29.871034014566902,51.11478040893107 M 31.006091485831277,51.11478040893107 M 31.006091485831277,51.296772726115336 M 31.15168535556309,51.29677272611535 M 31.151685355563075,50.74313294160817 M 31.006091485831277,50.74313294160817 M 31.006091485831263,50.925125257831155 M 29.871034014566902,50.925125257831155 M 29.871034014566902,50.74313294160817 "
  />
  <path id="face3-cut"
 style="fill:none;stroke:#0000FF;stroke-width:0.1;stroke-miterlimit:4;stroke-dasharray:none;stroke-linejoin:round;stroke-linecap:round"
        d="M 29.725440144835105,54.34753873125271 M 29.725440144835105,54.527615345919784 M 30.79536351648261,54.527615345919784 M 30.79536351648261,54.34753873125271 M 29.99651294176998,54.34753873125271 M 29.90455891878146,54.21056556175938 M 29.87654167740216,54.138008096163205 M 29.86720259694239,54.069760975097694 M 29.87199186897304,54.00714124825957 M 29.88635968506499,53.961044508638935 M 29.911024436022842,53.92716041173452 M 29.946704512651195,53.901178613054725 M 30.044884589279548,53.8729219103497 M 30.186168114183758,53.86669585721222 M 30.79536351648261,53.86669585721221 M 30.79536351648261,53.68661924353633 M 30.100919072038167,53.68661924353633 M 30.00082328659755,53.692965028454864 M 29.91701102606116,53.71200238321269 M 29.84780604521825,53.742533989906505 M 29.7915320988581,53.783362530635344 M 29.748428650582227,53.833290687499584 M 29.718735163992193,53.8911211425996 M 29.701493784681844,53.95493818728794 M 29.69574665824507,54.02282611291383 M 29.705205470505604,54.11046978414964 M 29.733581907287217,54.189492766466245 M 29.780157577785303,54.266360576587076 M 29.84421409119527,54.34753873125271 "
  />
  <path id="face4-cut"
 style="fill:none;stroke:#0000FF;stroke-width:0.1;stroke-miterlimit:4;stroke-dasharray:none;stroke-linejoin:round;stroke-linecap:round"
        d="M 29.709605614183772,55.042222587873454 M 29.704367347900245,55.11190649095897 M 29.712509110352343,55.20817085197929 M 29.735018688896417,55.31114019344123 M 29.896896083532425,55.300603795706834 M 29.87534435939449,55.24121682667297 M 29.862413324911728,55.155967790522325 M 29.879175777019015,55.05730879369314 M 29.90012884215311,55.0259390641334 M 29.929463133340846,55.00462680512358 M 30.01183861226805,54.98259615536409 M 30.137317539471127,54.979722592352246 M 30.645938229126287,54.979722592352246 M 30.645938229126287,55.31114019344122 M 30.79536351648261,55.31114019344123 M 30.79536351648261,54.979722592352246 M 31.10283478085043,54.979722592352246 M 31.10283478085043,54.79964597706392 M 30.79536351648261,54.79964597706392 M 30.79536351648261,54.67799847644733 M 30.645938229126287,54.67799847644733 M 30.645938229126287,54.79964597706392 M 30.053026351731646,54.79964597706393 M 29.96858549924123,54.80479444412002 M 29.896297424528584,54.820239845289535 M 29.836162127593724,54.84598218057599 M 29.78817960843665,54.8820214499853 M 29.75151174445196,54.927280067396595 M 29.72532041303434,54.98068044668952 "
  />
  <path id="face5-cut"
 style="fill:none;stroke:#0000FF;stroke-width:0.1;stroke-miterlimit:4;stroke-dasharray:none;stroke-linejoin:round;stroke-linecap:round"
        d="M 15.220579965381617,51.77571306710033 M 15.22057996538161,51.965368220319846 M 16.64682517610958,51.965368220319846 M 16.64682517610958,51.70195828541186 M 15.852763873427591,51.35808858988223 M 16.64682517610958,51.00176679005175 M 16.64682517610958,50.74314613001154 M 15.220579965381617,50.74314613001154 M 15.220579965381617,50.920349174748836 M 16.44950716844675,50.920349174748836 M 15.613300271895028,51.289123080101945 M 15.613300271895028,51.404065596437704 M 16.44950716844675,51.77571306710033 "
  />
  <path id="face6-cut"
 style="fill:none;stroke:#0000FF;stroke-width:0.1;stroke-miterlimit:4;stroke-dasharray:none;stroke-linejoin:round;stroke-linecap:round"
        d="M 29.725440144835105,52.1770408347535 M 29.725440144835105,52.357117445718245 M 30.419884589279548,52.357117445718245 M 30.512706667823622,52.3515499175147 M 30.59385489579296,52.33484733290625 M 30.6633292731876,52.307009691899054 M 30.721129800007517,52.268036994503646 M 30.766597951348515,52.219186424520814 M 30.79907520230637,52.16171516575231 M 30.81856155288108,52.09562321821561 M 30.825057003072658,52.02091058193116 M 30.81547845901136,51.93590101188012 M 30.786742826827435,51.85520178630625 M 30.740047424528584,51.776178805850776 M 30.67658957012246,51.696197971165304 M 30.79536351648261,51.696197971165304 M 30.79536351648261,51.516121361629786 M 29.725440144835105,51.51612136162977 M 29.725440144835105,51.696197971165304 M 30.52429071954775,51.696197971165304 M 30.617681524145453,51.835565772973794 M 30.644621179317866,51.90584833291089 M 30.653601064375337,51.97397572070925 M 30.648692060543922,52.0347994694406 M 30.633965049049664,52.081255403540425 M 30.609180566291045,52.116217085920866 M 30.57409914866652,52.14255807950455 M 30.47208765441364,52.16985692740883 M 30.334635547133956,52.1770408347535 "
  />
  <path id="face7-cut"
 style="fill:none;stroke:#0000FF;stroke-width:0.1;stroke-miterlimit:4;stroke-dasharray:none;stroke-linejoin:round;stroke-linecap:round"
        d="M 15.204685568829888,54.73353728335215 M 15.195675750822232,54.85425686263109 M 15.203338586071268,54.96201547551783 M 15.225369237412266,55.05732198209711 M 15.254583796799245,55.14161316384978 M 15.285714064998473,55.22015721961927 M 15.482074218255178,55.20962082189155 M 15.443281114806908,55.154065270249376 M 15.400656593734112,55.07168979716501 M 15.366173835113415,54.96872045587804 M 15.352763873427591,54.85234115395832 M 15.358930061167058,54.77397669608631 M 15.377428624385445,54.70459212265364 M 15.408259563082765,54.64418743364662 M 15.451422877259013,54.59276262905311 M 15.506260042009963,54.55169462446807 M 15.572112532431419,54.522360335486766 M 15.64898034852338,54.50475976210117 M 15.736863490285835,54.49889290430653 M 15.736863490285835,55.240272160737916 M 15.834564639711118,55.240272160737916 M 15.952979390668972,55.23260932602574 M 16.05151866269962,55.20962082189155 M 16.13329548262299,55.172264502681486 M 16.201422877259006,55.12149822274512 M 16.254583796799245,55.05923769077276 M 16.291461191435253,54.98739861545461 M 16.31301291557319,54.905023142469304 M 16.320196823619163,54.81115341750039 M 16.31052848070729,54.70578944057279 M 16.28152345197165,54.61096186140985 M 16.233181737412274,54.52667067998972 M 16.16550333702913,54.45291589629248 M 16.081481545841385,54.39299013457003 M 15.984109658868206,54.35018601907146 M 15.873387676109587,54.32450354977935 M 15.749315597565527,54.315942726683176 M 15.624225798714953,54.324772946310375 M 15.51428207266131,54.351263605195726 M 15.419484419404604,54.395414703350454 M 15.33983283894483,54.457226240793105 M 15.276764112891193,54.535021972464605 M 15.231715022852875,54.62712565330776 M 16.00027345197166,55.04774343871935 M 15.874794524768589,55.06498481679981 M 15.874794524768589,54.49889290430653 M 15.994047398331809,54.52571282565572 M 16.087438202929505,54.58701550304626 M 16.150177666531043,54.678490592018846 M 16.124794524768596,54.9676428697487 M 16.089353911741775,55.00368213919012 "
  />
  <path id="face8-cut"
 style="fill:none;stroke:#0000FF;stroke-width:0.1;stroke-miterlimit:4;stroke-dasharray:none;stroke-linejoin:round;stroke-linecap:round"
        d="M 15.627698020937174,53.11239876423696 M 15.7550627240023,53.1205405259757 M 15.882068231665144,53.11239876423696 M 15.993927666531043,53.0879734790246 M 16.090641028600004,53.04726467035037 M 16.17220831787204,52.99027233823405 M 16.2369532891364,52.91975031387453 M 16.28319969718239,52.83845242846989 M 16.310947542009977,52.746378682047805 M 16.320196823619163,52.6435290746405 M 16.31091760905978,52.54100872976659 M 16.28307996538161,52.44896491658214 M 16.23668389258468,52.36739763505726 M 16.171729390668965,52.296306885164654 M 16.090012436645985,52.23868596160919 M 15.993329007527208,52.19752815909273 M 15.88167910331265,52.17283347759212 M 15.7550627240023,52.164601917093464 M 15.631589304462075,52.17259401401397 M 15.521705444308822,52.19657030477981 M 15.425411143542533,52.236530789404256 M 15.342706402163223,52.29247546790893 M 15.276285185688131,52.36236889990511 M 15.228841459634495,52.44417564500435 M 15.200375224002308,52.537895703237865 M 15.190886478791576,52.6435290746405 M 15.200075894500387,52.746378682047805 M 15.227644141626826,52.83845242846989 M 15.273591220170886,52.91975031387453 M 15.337917130132574,52.99027233823405 M 15.419125224002308,53.04726467035037 M 15.51571885427051,53.0879734790246 M 15.936216938561692,52.91579916480326 M 15.7550627240023,52.93471678763086 M 15.575824218255178,52.915679433013196 M 15.505511718255178,52.89188273974629 M 15.448070386837557,52.85856736918228 M 15.403440358101925,52.81657144386037 M 15.371561766147899,52.766733086320826 M 15.37204069335096,52.51888828164654 M 15.404517944308822,52.46869072889585 M 15.44998609564982,52.42657507195811 M 15.508026086071276,52.39325970155846 M 15.578218854270503,52.369463008423395 M 15.7550627240023,52.35042565391986 M 15.936216938561692,52.36946300842341 M 16.00676890216323,52.39325970155846 M 16.063970769979314,52.42657507195811 M 16.108181737412266,52.46869072889585 M 16.13976099986438,52.51888828164654 M 16.13976099986438,52.76733174527011 M 16.108181737412266,52.81720003575744 M 16.063970769979314,52.85904629634216 M 16.00676890216323,52.89215213627381 "
  />
  <path id="face9-cut"
 style="fill:none;stroke:#0000FF;stroke-width:0.1;stroke-miterlimit:4;stroke-dasharray:none;stroke-linejoin:round;stroke-linecap:round"
        d="M 29.878696849815952,52.911236168378196 M 29.866244742536253,53.0266576140353 M 29.92389560460522,53.20140616193824 M 29.968735163992193,53.24409054521554 M 30.0259070988581,53.278034507806126 M 30.094932481999862,53.30228019537756 M 30.268543593110962,53.32167674543874 M 30.431019646750812,53.30706946699728 M 30.552547424528598,53.263247631685076 M 30.596758391961544,53.229483266784854 M 30.62833765441364,53.186619285828044 M 30.619597232957716,52.925603983182995 M 30.5319535547968,52.79006759694144 M 29.925631715716335,52.79006759694143 "
  />
  <path id="face10-cut"
 style="fill:none;stroke:#0000FF;stroke-width:0.1;stroke-miterlimit:4;stroke-dasharray:none;stroke-linejoin:round;stroke-linecap:round"
        d="M 15.37204069335096,52.51888828164654 M 15.371561766147899,52.766733086320826 M 15.403440358101925,52.81657144386037 M 15.448070386837557,52.85856736918228 M 15.505511718255178,52.89188273974629 M 15.575824218255178,52.915679433013196 M 15.7550627240023,52.93471678763086 M 15.936216938561692,52.91579916480326 M 16.00676890216323,52.89215213627381 M 16.063970769979314,52.85904629634216 M 16.108181737412266,52.81720003575744 M 16.13976099986438,52.76733174527011 M 16.13976099986438,52.51888828164654 M 16.108181737412266,52.46869072889585 M 16.063970769979314,52.42657507195811 M 16.00676890216323,52.39325970155846 M 15.936216938561692,52.36946300842341 M 15.7550627240023,52.35042565391986 M 15.578218854270503,52.369463008423395 M 15.508026086071276,52.39325970155846 M 15.44998609564982,52.42657507195811 M 15.404517944308822,52.46869072889585 "
  />
  <path id="face11-cut"
 style="fill:none;stroke:#0000FF;stroke-width:0.1;stroke-miterlimit:4;stroke-dasharray:none;stroke-linejoin:round;stroke-linecap:round"
        d="M 15.874794524768589,54.49889290430653 M 15.874794524768589,55.06498481679981 M 16.00027345197166,55.04774343871935 M 16.089353911741775,55.00368213919012 M 16.124794524768596,54.9676428697487 M 16.150177666531043,54.678490592018846 M 16.087438202929505,54.58701550304626 M 15.994047398331809,54.52571282565572 "
  />
  <path id="face12-cut"
 style="fill:none;stroke:#0000FF;stroke-width:0.1;stroke-miterlimit:4;stroke-dasharray:none;stroke-linejoin:round;stroke-linecap:round"
        d="M 15.22057996538161,53.949084517923524 M 15.220579965381617,54.129161132005535 M 16.71100142132031,54.129161132005535 M 16.71100142132032,53.949084517923524 M 16.247399888753264,53.94908451792354 M 16.302476517105752,53.82360560082739 M 16.320196823619163,53.68375886895829 M 16.310259084155568,53.59479814834771 M 16.28044586576476,53.50990830869313 M 16.233151804462075,53.4331602308676 M 16.17077153626284,53.36862479573362 M 16.08755793473027,53.311392999858995 M 15.991173835113415,53.26805009170678 M 15.87874567419388,53.24075124348752 M 15.747399888753257,53.231651627416014 M 15.620124984538698,53.23883553484082 M 15.508415214423763,53.2603872571182 M 15.412749505611501,53.29510947635221 M 15.333606785304987,53.341804874650464 M 15.272064639711118,53.39915640233205 M 15.227284946224529,53.467762718367226 M 15.199986095649813,53.54522918696175 M 15.190886478791576,53.62916117231673 M 15.200943950055944,53.72494660503881 M 15.229200655036792,53.80444851425982 M 15.271346248906518,53.876287588904646 M 15.329775367680469,53.949084517923524 M 16.097974601396942,53.949084517923524 M 15.481116363849054,53.949084517923524 M 15.432146057335643,53.88371095995383 M 15.36859840407893,53.60928569503719 M 15.387366363849047,53.55636424350301 M 15.418646296799238,53.51254240808903 M 15.462438202929505,53.47782018878442 M 15.584684371511884,53.432561571914405 M 15.751231306377782,53.41747536629529 M 15.9244832220866,53.43711137995868 M 15.993778001780086,53.46165639704296 M 16.05151866269963,53.496019420970285 M 16.096986814040612,53.539062999737766 M 16.12946406499848,53.589649681342806 M 16.142993758485062,53.82887379963404 "
  />
  <path id="face13-cut"
 style="fill:none;stroke:#0000FF;stroke-width:0.1;stroke-miterlimit:4;stroke-dasharray:none;stroke-linejoin:round;stroke-linecap:round"
        d="M 15.387366363849047,53.55636424350301 M 15.36859840407893,53.60928569503719 M 15.432146057335643,53.88371095995383 M 15.481116363849054,53.949084517923524 M 16.097974601396942,53.949084517923524 M 16.142993758485062,53.82887379963404 M 16.12946406499848,53.589649681342806 M 16.096986814040612,53.539062999737766 M 16.05151866269963,53.496019420970285 M 15.993778001780086,53.46165639704296 M 15.9244832220866,53.43711137995868 M 15.751231306377782,53.41747536629529 M 15.584684371511884,53.432561571914405 M 15.462438202929505,53.47782018878442 M 15.418646296799238,53.51254240808903 "
  />
  <path id="face0-interior"
 style="fill:none;stroke:#FF0000;stroke-width:0.1;stroke-miterlimit:4;stroke-dasharray:none;stroke-linejoin:round;stroke-linecap:round"
        d="M 10.0,35.20000000000004 M 13.0,35.20000000000004 M 13.0,55.00000000000004 M 10.0,55.00000000000004 M 10.0,70.00000000000007 M 13.0,70.00000000000007 M 13.0,80.00000000000007 M 33.0,80.00000000000007 M 33.0,70.00000000000007 M 35.99997523796213,69.99138109633088 M 35.99997523796213,54.99138109633087 M 33.0,55.00000000000004 M 33.0,35.20000000000004 M 35.999976666530756,35.20000000000004 M 35.99997523796213,20.191381096330836 M 33.0,20.200000000000067 M 33.0,10.000000000000028 M 13.0,10.0 M 13.0,20.200000000000024 M 10.0,20.200000000000024 M 16.0,72.00000000000006 M 16.0,58.00000000000004 M 30.0,58.00000000000004 M 30.0,72.00000000000006 M 24.060660171779844,18.439339828220206 M 24.299038105676665,18.749999999999993 M 24.44888873943364,19.111771432346295 M 24.500000000000014,19.500000000000007 M 24.44888873943364,19.88822856765372 M 24.299038105676665,20.25000000000002 M 24.060660171779844,20.56066017177981 M 23.750000000000007,20.799038105676594 M 23.388228567653798,20.94888873943352 M 22.999999999999993,21.00000000000002 M 22.611771432346252,20.94888873943352 M 22.249999999999986,20.799038105676587 M 21.93933982822015,20.5606601717798 M 21.70096189432332,20.250000000000007 M 21.551111260566394,19.88822856765372 M 21.49999999999998,19.500000000000014 M 21.551111260566394,19.111771432346295 M 21.700961894323335,18.75 M 21.93933982822015,18.439339828220206 M 22.249999999999986,18.200961894323427 M 22.611771432346238,18.051111260566493 M 22.999999999999993,17.999999999999986 M 23.388228567653798,18.051111260566493 M 23.750000000000007,18.200961894323427 M 23.750000000000007,45.7009618943233 M 24.06066017177985,45.939339828220085 M 24.299038105676665,46.2499999999999 M 24.44888873943364,46.61177143234619 M 24.500000000000014,46.9999999999999 M 24.44888873943364,47.3882285676538 M 24.299038105676665,47.749999999999915 M 24.060660171779844,48.06066017177989 M 23.750000000000007,48.29903810567667 M 23.388228567653798,48.4488887394336 M 22.999999999999993,48.49999999999993 M 22.611771432346238,48.4488887394336 M 22.249999999999986,48.29903810567667 M 21.939339828220163,48.06066017177989 M 21.70096189432332,47.749999999999915 M 21.551111260566394,47.3882285676538 M 21.49999999999998,46.9999999999999 M 21.551111260566394,46.61177143234619 M 21.70096189432332,46.2499999999999 M 21.93933982822015,45.939339828220085 M 22.249999999999986,45.7009618943233 M 22.611771432346238,45.55111126056637 M 22.999999999999993,45.49999999999986 M 23.388228567653798,45.55111126056637 M 28.500000000000007,22.24999999999993 M 28.500000000000007,44.24999999999997 M 17.499999999999993,44.24999999999997 M 17.499999999999986,22.249999999999915 M 25.801111260566394,53.3882285676537 M 25.75,52.999999999999915 M 25.801111260566394,52.61177143234612 M 25.950961894323335,52.2499999999999 M 26.189339828220177,51.93933982822011 M 26.5,51.70096189432324 M 26.861771432346224,51.551111260566316 M 27.25,51.4999999999999 M 27.638228567653776,51.551111260566316 M 28.0,51.70096189432324 M 28.310660171779823,51.93933982822011 M 28.549038105676658,52.2499999999999 M 28.6988887394336,52.61177143234612 M 28.750000000000007,52.999999999999915 M 28.6988887394336,53.3882285676537 M 28.549038105676658,53.7499999999999 M 28.310660171779823,54.060660171779745 M 28.0,54.29903810567657 M 27.63822856765379,54.448888739433514 M 27.25,54.499999999999915 M 26.861771432346224,54.448888739433514 M 26.499999999999986,54.29903810567657 M 26.189339828220177,54.060660171779745 M 25.950961894323335,53.7499999999999 M 20.198888739433606,52.61177143234612 M 20.25,52.999999999999915 M 20.198888739433606,53.3882285676537 M 20.049038105676665,53.7499999999999 M 19.81066017177983,54.060660171779745 M 19.5,54.29903810567657 M 19.138228567653783,54.448888739433514 M 18.75,54.499999999999915 M 18.361771432346224,54.448888739433514 M 18.000000000000007,54.29903810567657 M 17.689339828220177,54.060660171779745 M 17.450961894323342,53.7499999999999 M 17.3011112605664,53.3882285676537 M 17.249999999999993,52.999999999999915 M 17.301111260566387,52.61177143234612 M 17.450961894323342,52.2499999999999 M 17.689339828220177,51.93933982822011 M 18.000000000000007,51.70096189432324 M 18.361771432346217,51.551111260566316 M 18.75,51.4999999999999 M 19.138228567653783,51.551111260566316 M 19.5,51.70096189432324 M 19.81066017177983,51.93933982822011 M 20.049038105676665,52.2499999999999 M 29.704367347900245,55.11190649095897 L 29.709605614183772,55.042222587873454 L 29.72532041303434,54.98068044668952 L 29.75151174445196,54.927280067396595 L 29.78817960843665,54.8820214499853 L 29.836162127593724,54.84598218057599 L 29.896297424528584,54.820239845289535 L 29.96858549924123,54.80479444412002 L 30.053026351731646,54.79964597706393 L 30.645938229126287,54.79964597706392 L 30.645938229126287,54.67799847644733 L 30.79536351648261,54.67799847644733 L 30.79536351648261,54.79964597706392 L 31.10283478085043,54.79964597706392 L 31.10283478085043,54.979722592352246 L 30.79536351648261,54.979722592352246 L 30.79536351648261,55.31114019344123 L 30.645938229126287,55.31114019344122 L 30.645938229126287,54.979722592352246 L 30.137317539471127,54.979722592352246 L 30.01183861226805,54.98259615536409 L 29.929463133340846,55.00462680512358 L 29.90012884215311,55.0259390641334 L 29.879175777019015,55.05730879369314 L 29.862413324911728,55.155967790522325 L 29.87534435939449,55.24121682667297 L 29.896896083532425,55.300603795706834 L 29.735018688896417,55.31114019344123 L 29.712509110352343,55.20817085197929 L 29.704367347900245,55.11190649095897 M 30.288658535639698,53.50750048447489 L 30.161832625678016,53.49950838744468 L 30.048596275103307,53.47553209635758 L 29.94894948391557,53.435571611224205 L 29.862892252114804,53.37962693206235 L 29.79353760652093,53.31146961029809 L 29.743998573953874,53.234871197353314 L 29.714275154413656,53.14983169324728 L 29.704367347900245,53.056351098001784 L 29.722566581616718,52.91554651281942 L 29.7790799915784,52.79006759694144 L 29.33080412950943,52.79006759694143 L 29.33080412950943,52.60999098512697 L 30.79536351648261,52.60999098512697 L 30.79536351648261,52.79006759694144 L 30.68329455096537,52.79006759694143 L 30.738730374720177,52.86082908478795 L 30.78434819081211,52.93901394366934 L 30.814879800007517,53.02462217360244 L 30.825057003072658,53.11765377460523 L 30.815957386214407,53.20454912143562 L 30.788658535639712,53.281327132043884 L 30.743160451348515,53.347987806407005 L 30.67946313334086,53.40453114450533 L 30.600440144835105,53.44958023072995 L 30.508965049049664,53.481758149473336 L 30.405037845984538,53.50106490072393 L 30.288658535639698,53.50750048447489 M 29.725440144835105,54.527615345919784 L 29.725440144835105,54.34753873125271 L 29.84421409119527,54.34753873125271 L 29.780157577785303,54.266360576587076 L 29.733581907287217,54.189492766466245 L 29.705205470505604,54.11046978414964 L 29.69574665824507,54.02282611291383 L 29.701493784681844,53.95493818728794 L 29.718735163992193,53.8911211425996 L 29.748428650582227,53.833290687499584 L 29.7915320988581,53.783362530635344 L 29.84780604521825,53.742533989906505 L 29.91701102606116,53.71200238321269 L 30.00082328659755,53.692965028454864 L 30.100919072038167,53.68661924353633 L 30.79536351648261,53.68661924353633 L 30.79536351648261,53.86669585721221 L 30.186168114183758,53.86669585721222 L 30.044884589279548,53.8729219103497 L 29.946704512651195,53.901178613054725 L 29.911024436022842,53.92716041173452 L 29.88635968506499,53.961044508638935 L 29.87199186897304,54.00714124825957 L 29.86720259694239,54.069760975097694 L 29.87654167740216,54.138008096163205 L 29.90455891878146,54.21056556175938 L 29.99651294176998,54.34753873125271 L 30.79536351648261,54.34753873125271 L 30.79536351648261,54.527615345919784 L 29.725440144835105,54.527615345919784 M 29.725440144835105,51.29677272611535 L 29.725440144835105,50.74313294160817 L 29.871034014566902,50.74313294160817 L 29.871034014566902,50.925125257831155 L 31.006091485831263,50.925125257831155 L 31.006091485831277,50.74313294160817 L 31.151685355563075,50.74313294160817 L 31.15168535556309,51.29677272611535 L 31.006091485831277,51.296772726115336 L 31.006091485831277,51.11478040893107 L 29.871034014566902,51.11478040893107 L 29.871034014566902,51.29677272611535 L 29.725440144835105,51.29677272611535 M 29.725440144835105,52.357117445718245 L 29.725440144835105,52.1770408347535 L 30.334635547133956,52.1770408347535 L 30.47208765441364,52.16985692740883 L 30.57409914866652,52.14255807950455 L 30.609180566291045,52.116217085920866 L 30.633965049049664,52.081255403540425 L 30.648692060543922,52.0347994694406 L 30.653601064375337,51.97397572070925 L 30.644621179317866,51.90584833291089 L 30.617681524145453,51.835565772973794 L 30.52429071954775,51.696197971165304 L 29.725440144835105,51.696197971165304 L 29.725440144835105,51.51612136162977 L 30.79536351648261,51.516121361629786 L 30.79536351648261,51.696197971165304 L 30.67658957012246,51.696197971165304 L 30.740047424528584,51.776178805850776 L 30.786742826827435,51.85520178630625 L 30.81547845901136,51.93590101188012 L 30.825057003072658,52.02091058193116 L 30.81856155288108,52.09562321821561 L 30.79907520230637,52.16171516575231 L 30.766597951348515,52.219186424520814 L 30.721129800007517,52.268036994503646 L 30.6633292731876,52.307009691899054 L 30.59385489579296,52.33484733290625 L 30.512706667823622,52.3515499175147 L 30.419884589279548,52.357117445718245 L 29.725440144835105,52.357117445718245 M 15.195675750822232,54.85425686263109 L 15.204685568829888,54.73353728335215 L 15.231715022852875,54.62712565330776 L 15.276764112891193,54.535021972464605 L 15.33983283894483,54.457226240793105 L 15.419484419404604,54.395414703350454 L 15.51428207266131,54.351263605195726 L 15.624225798714953,54.324772946310375 L 15.749315597565527,54.315942726683176 L 15.873387676109587,54.32450354977935 L 15.984109658868206,54.35018601907146 L 16.081481545841385,54.39299013457003 L 16.16550333702913,54.45291589629248 L 16.233181737412274,54.52667067998972 L 16.28152345197165,54.61096186140985 L 16.31052848070729,54.70578944057279 L 16.320196823619163,54.81115341750039 L 16.31301291557319,54.905023142469304 L 16.291461191435253,54.98739861545461 L 16.254583796799245,55.05923769077276 L 16.201422877259006,55.12149822274512 L 16.13329548262299,55.172264502681486 L 16.05151866269962,55.20962082189155 L 15.952979390668972,55.23260932602574 L 15.834564639711118,55.240272160737916 L 15.736863490285835,55.240272160737916 L 15.736863490285835,54.49889290430653 L 15.64898034852338,54.50475976210117 L 15.572112532431419,54.522360335486766 L 15.506260042009963,54.55169462446807 L 15.451422877259013,54.59276262905311 L 15.408259563082765,54.64418743364662 L 15.377428624385445,54.70459212265364 L 15.358930061167058,54.77397669608631 L 15.352763873427591,54.85234115395832 L 15.366173835113415,54.96872045587804 L 15.400656593734112,55.07168979716501 L 15.443281114806908,55.154065270249376 L 15.482074218255178,55.20962082189155 L 15.285714064998473,55.22015721961927 L 15.254583796799245,55.14161316384978 L 15.225369237412266,55.05732198209711 L 15.203338586071268,54.96201547551783 L 15.195675750822232,54.85425686263109 M 15.22057996538161,51.965368220319846 L 15.220579965381617,51.77571306710033 L 16.44950716844675,51.77571306710033 L 15.613300271895028,51.404065596437704 L 15.613300271895028,51.289123080101945 L 16.44950716844675,50.920349174748836 L 15.220579965381617,50.920349174748836 L 15.220579965381617,50.74314613001154 L 16.64682517610958,50.74314613001154 L 16.64682517610958,51.00176679005175 L 15.852763873427591,51.35808858988223 L 16.64682517610958,51.70195828541186 L 16.64682517610958,51.965368220319846 L 15.22057996538161,51.965368220319846 M 15.220579965381617,54.129161132005535 L 15.22057996538161,53.949084517923524 L 15.329775367680469,53.949084517923524 L 15.271346248906518,53.876287588904646 L 15.229200655036792,53.80444851425982 L 15.200943950055944,53.72494660503881 L 15.190886478791576,53.62916117231673 L 15.199986095649813,53.54522918696175 L 15.227284946224529,53.467762718367226 L 15.272064639711118,53.39915640233205 L 15.333606785304987,53.341804874650464 L 15.412749505611501,53.29510947635221 L 15.508415214423763,53.2603872571182 L 15.620124984538698,53.23883553484082 L 15.747399888753257,53.231651627416014 L 15.87874567419388,53.24075124348752 L 15.991173835113415,53.26805009170678 L 16.08755793473027,53.311392999858995 L 16.17077153626284,53.36862479573362 L 16.233151804462075,53.4331602308676 L 16.28044586576476,53.50990830869313 L 16.310259084155568,53.59479814834771 L 16.320196823619163,53.68375886895829 L 16.302476517105752,53.82360560082739 L 16.247399888753264,53.94908451792354 L 16.71100142132032,53.949084517923524 L 16.71100142132031,54.129161132005535 L 15.220579965381617,54.129161132005535 M 15.7550627240023,53.1205405259757 L 15.627698020937174,53.11239876423696 L 15.51571885427051,53.0879734790246 L 15.419125224002308,53.04726467035037 L 15.337917130132574,52.99027233823405 L 15.273591220170886,52.91975031387453 L 15.227644141626826,52.83845242846989 L 15.200075894500387,52.746378682047805 L 15.190886478791576,52.6435290746405 L 15.200375224002308,52.537895703237865 L 15.228841459634495,52.44417564500435 L 15.276285185688131,52.36236889990511 L 15.342706402163223,52.29247546790893 L 15.425411143542533,52.236530789404256 L 15.521705444308822,52.19657030477981 L 15.631589304462075,52.17259401401397 L 15.7550627240023,52.164601917093464 L 15.88167910331265,52.17283347759212 L 15.993329007527208,52.19752815909273 L 16.090012436645985,52.23868596160919 L 16.171729390668965,52.296306885164654 L 16.23668389258468,52.36739763505726 L 16.28307996538161,52.44896491658214 L 16.31091760905978,52.54100872976659 L 16.320196823619163,52.6435290746405 L 16.310947542009977,52.746378682047805 L 16.28319969718239,52.83845242846989 L 16.2369532891364,52.91975031387453 L 16.17220831787204,52.99027233823405 L 16.090641028600004,53.04726467035037 L 15.993927666531043,53.0879734790246 L 15.882068231665144,53.11239876423696 L 15.7550627240023,53.1205405259757 "
  />
  <path id="face1-interior"
 style="fill:none;stroke:#FF0000;stroke-width:0.1;stroke-miterlimit:4;stroke-dasharray:none;stroke-linejoin:round;stroke-linecap:round"
        d="M 30.161832625678016,53.49950838744468 M 30.288658535639698,53.50750048447489 M 30.405037845984538,53.50106490072393 M 30.508965049049664,53.481758149473336 M 30.600440144835105,53.44958023072995 M 30.67946313334086,53.40453114450533 M 30.743160451348515,53.347987806407005 M 30.788658535639712,53.281327132043884 M 30.815957386214407,53.20454912143562 M 30.825057003072658,53.11765377460523 M 30.814879800007517,53.02462217360244 M 30.78434819081211,52.93901394366934 M 30.738730374720177,52.86082908478795 M 30.68329455096537,52.79006759694143 M 30.79536351648261,52.79006759694144 M 30.79536351648261,52.60999098512697 M 29.33080412950943,52.60999098512697 M 29.33080412950943,52.79006759694143 M 29.7790799915784,52.79006759694144 M 29.722566581616718,52.91554651281942 M 29.704367347900245,53.056351098001784 M 29.714275154413656,53.14983169324728 M 29.743998573953874,53.234871197353314 M 29.79353760652093,53.31146961029809 M 29.862892252114804,53.37962693206235 M 29.94894948391557,53.435571611224205 M 30.048596275103307,53.47553209635758 M 30.431019646750812,53.30706946699728 L 30.268543593110962,53.32167674543874 L 30.094932481999862,53.30228019537756 L 30.0259070988581,53.278034507806126 L 29.968735163992193,53.24409054521554 L 29.92389560460522,53.20140616193824 L 29.866244742536253,53.0266576140353 L 29.878696849815952,52.911236168378196 L 29.925631715716335,52.79006759694143 L 30.5319535547968,52.79006759694144 L 30.619597232957716,52.925603983182995 L 30.62833765441364,53.186619285828044 L 30.596758391961544,53.229483266784854 L 30.552547424528598,53.263247631685076 L 30.431019646750812,53.30706946699728 "
  />
  <path id="face2-interior"
 style="fill:none;stroke:#FF0000;stroke-width:0.1;stroke-miterlimit:4;stroke-dasharray:none;stroke-linejoin:round;stroke-linecap:round"
        d="M 29.725440144835105,50.74313294160817 M 29.725440144835105,51.29677272611535 M 29.871034014566902,51.29677272611535 M 29.871034014566902,51.11478040893107 M 31.006091485831277,51.11478040893107 M 31.006091485831277,51.296772726115336 M 31.15168535556309,51.29677272611535 M 31.151685355563075,50.74313294160817 M 31.006091485831277,50.74313294160817 M 31.006091485831263,50.925125257831155 M 29.871034014566902,50.925125257831155 M 29.871034014566902,50.74313294160817 "
  />
  <path id="face3-interior"
 style="fill:none;stroke:#FF0000;stroke-width:0.1;stroke-miterlimit:4;stroke-dasharray:none;stroke-linejoin:round;stroke-linecap:round"
        d="M 29.725440144835105,54.34753873125271 M 29.725440144835105,54.527615345919784 M 30.79536351648261,54.527615345919784 M 30.79536351648261,54.34753873125271 M 29.99651294176998,54.34753873125271 M 29.90455891878146,54.21056556175938 M 29.87654167740216,54.138008096163205 M 29.86720259694239,54.069760975097694 M 29.87199186897304,54.00714124825957 M 29.88635968506499,53.961044508638935 M 29.911024436022842,53.92716041173452 M 29.946704512651195,53.901178613054725 M 30.044884589279548,53.8729219103497 M 30.186168114183758,53.86669585721222 M 30.79536351648261,53.86669585721221 M 30.79536351648261,53.68661924353633 M 30.100919072038167,53.68661924353633 M 30.00082328659755,53.692965028454864 M 29.91701102606116,53.71200238321269 M 29.84780604521825,53.742533989906505 M 29.7915320988581,53.783362530635344 M 29.748428650582227,53.833290687499584 M 29.718735163992193,53.8911211425996 M 29.701493784681844,53.95493818728794 M 29.69574665824507,54.02282611291383 M 29.705205470505604,54.11046978414964 M 29.733581907287217,54.189492766466245 M 29.780157577785303,54.266360576587076 M 29.84421409119527,54.34753873125271 "
  />
  <path id="face4-interior"
 style="fill:none;stroke:#FF0000;stroke-width:0.1;stroke-miterlimit:4;stroke-dasharray:none;stroke-linejoin:round;stroke-linecap:round"
        d="M 29.709605614183772,55.042222587873454 M 29.704367347900245,55.11190649095897 M 29.712509110352343,55.20817085197929 M 29.735018688896417,55.31114019344123 M 29.896896083532425,55.300603795706834 M 29.87534435939449,55.24121682667297 M 29.862413324911728,55.155967790522325 M 29.879175777019015,55.05730879369314 M 29.90012884215311,55.0259390641334 M 29.929463133340846,55.00462680512358 M 30.01183861226805,54.98259615536409 M 30.137317539471127,54.979722592352246 M 30.645938229126287,54.979722592352246 M 30.645938229126287,55.31114019344122 M 30.79536351648261,55.31114019344123 M 30.79536351648261,54.979722592352246 M 31.10283478085043,54.979722592352246 M 31.10283478085043,54.79964597706392 M 30.79536351648261,54.79964597706392 M 30.79536351648261,54.67799847644733 M 30.645938229126287,54.67799847644733 M 30.645938229126287,54.79964597706392 M 30.053026351731646,54.79964597706393 M 29.96858549924123,54.80479444412002 M 29.896297424528584,54.820239845289535 M 29.836162127593724,54.84598218057599 M 29.78817960843665,54.8820214499853 M 29.75151174445196,54.927280067396595 M 29.72532041303434,54.98068044668952 "
  />
  <path id="face5-interior"
 style="fill:none;stroke:#FF0000;stroke-width:0.1;stroke-miterlimit:4;stroke-dasharray:none;stroke-linejoin:round;stroke-linecap:round"
        d="M 15.220579965381617,51.77571306710033 M 15.22057996538161,51.965368220319846 M 16.64682517610958,51.965368220319846 M 16.64682517610958,51.70195828541186 M 15.852763873427591,51.35808858988223 M 16.64682517610958,51.00176679005175 M 16.64682517610958,50.74314613001154 M 15.220579965381617,50.74314613001154 M 15.220579965381617,50.920349174748836 M 16.44950716844675,50.920349174748836 M 15.613300271895028,51.289123080101945 M 15.613300271895028,51.404065596437704 M 16.44950716844675,51.77571306710033 "
  />
  <path id="face6-interior"
 style="fill:none;stroke:#FF0000;stroke-width:0.1;stroke-miterlimit:4;stroke-dasharray:none;stroke-linejoin:round;stroke-linecap:round"
        d="M 29.725440144835105,52.1770408347535 M 29.725440144835105,52.357117445718245 M 30.419884589279548,52.357117445718245 M 30.512706667823622,52.3515499175147 M 30.59385489579296,52.33484733290625 M 30.6633292731876,52.307009691899054 M 30.721129800007517,52.268036994503646 M 30.766597951348515,52.219186424520814 M 30.79907520230637,52.16171516575231 M 30.81856155288108,52.09562321821561 M 30.825057003072658,52.02091058193116 M 30.81547845901136,51.93590101188012 M 30.786742826827435,51.85520178630625 M 30.740047424528584,51.776178805850776 M 30.67658957012246,51.696197971165304 M 30.79536351648261,51.696197971165304 M 30.79536351648261,51.516121361629786 M 29.725440144835105,51.51612136162977 M 29.725440144835105,51.696197971165304 M 30.52429071954775,51.696197971165304 M 30.617681524145453,51.835565772973794 M 30.644621179317866,51.90584833291089 M 30.653601064375337,51.97397572070925 M 30.648692060543922,52.0347994694406 M 30.633965049049664,52.081255403540425 M 30.609180566291045,52.116217085920866 M 30.57409914866652,52.14255807950455 M 30.47208765441364,52.16985692740883 M 30.334635547133956,52.1770408347535 "
  />
  <path id="face7-interior"
 style="fill:none;stroke:#FF0000;stroke-width:0.1;stroke-miterlimit:4;stroke-dasharray:none;stroke-linejoin:round;stroke-linecap:round"
        d="M 15.204685568829888,54.73353728335215 M 15.195675750822232,54.85425686263109 M 15.203338586071268,54.96201547551783 M 15.225369237412266,55.05732198209711 M 15.254583796799245,55.14161316384978 M 15.285714064998473,55.22015721961927 M 15.482074218255178,55.20962082189155 M 15.443281114806908,55.154065270249376 M 15.400656593734112,55.07168979716501 M 15.366173835113415,54.96872045587804 M 15.352763873427591,54.85234115395832 M 15.358930061167058,54.77397669608631 M 15.377428624385445,54.70459212265364 M 15.408259563082765,54.64418743364662 M 15.451422877259013,54.59276262905311 M 15.506260042009963,54.55169462446807 M 15.572112532431419,54.522360335486766 M 15.64898034852338,54.50475976210117 M 15.736863490285835,54.49889290430653 M 15.736863490285835,55.240272160737916 M 15.834564639711118,55.240272160737916 M 15.952979390668972,55.23260932602574 M 16.05151866269962,55.20962082189155 M 16.13329548262299,55.172264502681486 M 16.201422877259006,55.12149822274512 M 16.254583796799245,55.05923769077276 M 16.291461191435253,54.98739861545461 M 16.31301291557319,54.905023142469304 M 16.320196823619163,54.81115341750039 M 16.31052848070729,54.70578944057279 M 16.28152345197165,54.61096186140985 M 16.233181737412274,54.52667067998972 M 16.16550333702913,54.45291589629248 M 16.081481545841385,54.39299013457003 M 15.984109658868206,54.35018601907146 M 15.873387676109587,54.32450354977935 M 15.749315597565527,54.315942726683176 M 15.624225798714953,54.324772946310375 M 15.51428207266131,54.351263605195726 M 15.419484419404604,54.395414703350454 M 15.33983283894483,54.457226240793105 M 15.276764112891193,54.535021972464605 M 15.231715022852875,54.62712565330776 M 16.00027345197166,55.04774343871935 L 15.874794524768589,55.06498481679981 L 15.874794524768589,54.49889290430653 L 15.994047398331809,54.52571282565572 L 16.087438202929505,54.58701550304626 L 16.150177666531043,54.678490592018846 L 16.124794524768596,54.9676428697487 L 16.089353911741775,55.00368213919012 L 16.00027345197166,55.04774343871935 "
  />
  <path id="face8-interior"
 style="fill:none;stroke:#FF0000;stroke-width:0.1;stroke-miterlimit:4;stroke-dasharray:none;stroke-linejoin:round;stroke-linecap:round"
        d="M 15.627698020937174,53.11239876423696 M 15.7550627240023,53.1205405259757 M 15.882068231665144,53.11239876423696 M 15.993927666531043,53.0879734790246 M 16.090641028600004,53.04726467035037 M 16.17220831787204,52.99027233823405 M 16.2369532891364,52.91975031387453 M 16.28319969718239,52.83845242846989 M 16.310947542009977,52.746378682047805 M 16.320196823619163,52.6435290746405 M 16.31091760905978,52.54100872976659 M 16.28307996538161,52.44896491658214 M 16.23668389258468,52.36739763505726 M 16.171729390668965,52.296306885164654 M 16.090012436645985,52.23868596160919 M 15.993329007527208,52.19752815909273 M 15.88167910331265,52.17283347759212 M 15.7550627240023,52.164601917093464 M 15.631589304462075,52.17259401401397 M 15.521705444308822,52.19657030477981 M 15.425411143542533,52.236530789404256 M 15.342706402163223,52.29247546790893 M 15.276285185688131,52.36236889990511 M 15.228841459634495,52.44417564500435 M 15.200375224002308,52.537895703237865 M 15.190886478791576,52.6435290746405 M 15.200075894500387,52.746378682047805 M 15.227644141626826,52.83845242846989 M 15.273591220170886,52.91975031387453 M 15.337917130132574,52.99027233823405 M 15.419125224002308,53.04726467035037 M 15.51571885427051,53.0879734790246 M 15.936216938561692,52.91579916480326 L 15.7550627240023,52.93471678763086 L 15.575824218255178,52.915679433013196 L 15.505511718255178,52.89188273974629 L 15.448070386837557,52.85856736918228 L 15.403440358101925,52.81657144386037 L 15.371561766147899,52.766733086320826 L 15.37204069335096,52.51888828164654 L 15.404517944308822,52.46869072889585 L 15.44998609564982,52.42657507195811 L 15.508026086071276,52.39325970155846 L 15.578218854270503,52.369463008423395 L 15.7550627240023,52.35042565391986 L 15.936216938561692,52.36946300842341 L 16.00676890216323,52.39325970155846 L 16.063970769979314,52.42657507195811 L 16.108181737412266,52.46869072889585 L 16.13976099986438,52.51888828164654 L 16.13976099986438,52.76733174527011 L 16.108181737412266,52.81720003575744 L 16.063970769979314,52.85904629634216 L 16.00676890216323,52.89215213627381 L 15.936216938561692,52.91579916480326 "
  />
  <path id="face9-interior"
 style="fill:none;stroke:#FF0000;stroke-width:0.1;stroke-miterlimit:4;stroke-dasharray:none;stroke-linejoin:round;stroke-linecap:round"
        d="M 29.878696849815952,52.911236168378196 M 29.866244742536253,53.0266576140353 M 29.92389560460522,53.20140616193824 M 29.968735163992193,53.24409054521554 M 30.0259070988581,53.278034507806126 M 30.094932481999862,53.30228019537756 M 30.268543593110962,53.32167674543874 M 30.431019646750812,53.30706946699728 M 30.552547424528598,53.263247631685076 M 30.596758391961544,53.229483266784854 M 30.62833765441364,53.186619285828044 M 30.619597232957716,52.925603983182995 M 30.5319535547968,52.79006759694144 M 29.925631715716335,52.79006759694143 "
  />
  <path id="face10-interior"
 style="fill:none;stroke:#FF0000;stroke-width:0.1;stroke-miterlimit:4;stroke-dasharray:none;stroke-linejoin:round;stroke-linecap:round"
        d="M 15.37204069335096,52.51888828164654 M 15.371561766147899,52.766733086320826 M 15.403440358101925,52.81657144386037 M 15.448070386837557,52.85856736918228 M 15.505511718255178,52.89188273974629 M 15.575824218255178,52.915679433013196 M 15.7550627240023,52.93471678763086 M 15.936216938561692,52.91579916480326 M 16.00676890216323,52.89215213627381 M 16.063970769979314,52.85904629634216 M 16.108181737412266,52.81720003575744 M 16.13976099986438,52.76733174527011 M 16.13976099986438,52.51888828164654 M 16.108181737412266,52.46869072889585 M 16.063970769979314,52.42657507195811 M 16.00676890216323,52.39325970155846 M 15.936216938561692,52.36946300842341 M 15.7550627240023,52.35042565391986 M 15.578218854270503,52.369463008423395 M 15.508026086071276,52.39325970155846 M 15.44998609564982,52.42657507195811 M 15.404517944308822,52.46869072889585 "
  />
  <path id="face11-interior"
 style="fill:none;stroke:#FF0000;stroke-width:0.1;stroke-miterlimit:4;stroke-dasharray:none;stroke-linejoin:round;stroke-linecap:round"
        d="M 15.874794524768589,54.49889290430653 M 15.874794524768589,55.06498481679981 M 16.00027345197166,55.04774343871935 M 16.089353911741775,55.00368213919012 M 16.124794524768596,54.9676428697487 M 16.150177666531043,54.678490592018846 M 16.087438202929505,54.58701550304626 M 15.994047398331809,54.52571282565572 "
  />
  <path id="face12-interior"
 style="fill:none;stroke:#FF0000;stroke-width:0.1;stroke-miterlimit:4;stroke-dasharray:none;stroke-linejoin:round;stroke-linecap:round"
        d="M 15.22057996538161,53.949084517923524 M 15.220579965381617,54.129161132005535 M 16.71100142132031,54.129161132005535 M 16.71100142132032,53.949084517923524 M 16.247399888753264,53.94908451792354 M 16.302476517105752,53.82360560082739 M 16.320196823619163,53.68375886895829 M 16.310259084155568,53.59479814834771 M 16.28044586576476,53.50990830869313 M 16.233151804462075,53.4331602308676 M 16.17077153626284,53.36862479573362 M 16.08755793473027,53.311392999858995 M 15.991173835113415,53.26805009170678 M 15.87874567419388,53.24075124348752 M 15.747399888753257,53.231651627416014 M 15.620124984538698,53.23883553484082 M 15.508415214423763,53.2603872571182 M 15.412749505611501,53.29510947635221 M 15.333606785304987,53.341804874650464 M 15.272064639711118,53.39915640233205 M 15.227284946224529,53.467762718367226 M 15.199986095649813,53.54522918696175 M 15.190886478791576,53.62916117231673 M 15.200943950055944,53.72494660503881 M 15.229200655036792,53.80444851425982 M 15.271346248906518,53.876287588904646 M 15.329775367680469,53.949084517923524 M 16.097974601396942,53.949084517923524 L 15.481116363849054,53.949084517923524 L 15.432146057335643,53.88371095995383 L 15.36859840407893,53.60928569503719 L 15.387366363849047,53.55636424350301 L 15.418646296799238,53.51254240808903 L 15.462438202929505,53.47782018878442 L 15.584684371511884,53.432561571914405 L 15.751231306377782,53.41747536629529 L 15.9244832220866,53.43711137995868 L 15.993778001780086,53.46165639704296 L 16.05151866269963,53.496019420970285 L 16.096986814040612,53.539062999737766 L 16.12946406499848,53.589649681342806 L 16.142993758485062,53.82887379963404 L 16.097974601396942,53.949084517923524 "
  />
  <path id="face13-interior"
 style="fill:none;stroke:#FF0000;stroke-width:0.1;stroke-miterlimit:4;stroke-dasharray:none;stroke-linejoin:round;stroke-linecap:round"
        d="M 15.387366363849047,53.55636424350301 M 15.36859840407893,53.60928569503719 M 15.432146057335643,53.88371095995383 M 15.481116363849054,53.949084517923524 M 16.097974601396942,53.949084517923524 M 16.142993758485062,53.82887379963404 M 16.12946406499848,53.589649681342806 M 16.096986814040612,53.539062999737766 M 16.05151866269963,53.496019420970285 M 15.993778001780086,53.46165639704296 M 15.9244832220866,53.43711137995868 M 15.751231306377782,53.41747536629529 M 15.584684371511884,53.432561571914405 M 15.462438202929505,53.47782018878442 M 15.418646296799238,53.51254240808903 "
  />
  <path id="face0-interior"
 style="fill:none;stroke:#00FF00;stroke-width:0.1;stroke-miterlimit:4;stroke-dasharray:none;stroke-linejoin:round;stroke-linecap:round"
        d="M 10.0,35.20000000000004 M 13.0,35.20000000000004 M 13.0,55.00000000000004 M 10.0,55.00000000000004 M 10.0,70.00000000000007 M 13.0,70.00000000000007 M 13.0,80.00000000000007 M 33.0,80.00000000000007 M 33.0,70.00000000000007 M 35.99997523796213,69.99138109633088 M 35.99997523796213,54.99138109633087 M 33.0,55.00000000000004 M 33.0,35.20000000000004 M 35.999976666530756,35.20000000000004 M 35.99997523796213,20.191381096330836 M 33.0,20.200000000000067 M 33.0,10.000000000000028 M 13.0,10.0 M 13.0,20.200000000000024 M 10.0,20.200000000000024 M 16.0,72.00000000000006 M 16.0,58.00000000000004 M 30.0,58.00000000000004 M 30.0,72.00000000000006 M 24.060660171779844,18.439339828220206 M 24.299038105676665,18.749999999999993 M 24.44888873943364,19.111771432346295 M 24.500000000000014,19.500000000000007 M 24.44888873943364,19.88822856765372 M 24.299038105676665,20.25000000000002 M 24.060660171779844,20.56066017177981 M 23.750000000000007,20.799038105676594 M 23.388228567653798,20.94888873943352 M 22.999999999999993,21.00000000000002 M 22.611771432346252,20.94888873943352 M 22.249999999999986,20.799038105676587 M 21.93933982822015,20.5606601717798 M 21.70096189432332,20.250000000000007 M 21.551111260566394,19.88822856765372 M 21.49999999999998,19.500000000000014 M 21.551111260566394,19.111771432346295 M 21.700961894323335,18.75 M 21.93933982822015,18.439339828220206 M 22.249999999999986,18.200961894323427 M 22.611771432346238,18.051111260566493 M 22.999999999999993,17.999999999999986 M 23.388228567653798,18.051111260566493 M 23.750000000000007,18.200961894323427 M 23.750000000000007,45.7009618943233 M 24.06066017177985,45.939339828220085 M 24.299038105676665,46.2499999999999 M 24.44888873943364,46.61177143234619 M 24.500000000000014,46.9999999999999 M 24.44888873943364,47.3882285676538 M 24.299038105676665,47.749999999999915 M 24.060660171779844,48.06066017177989 M 23.750000000000007,48.29903810567667 M 23.388228567653798,48.4488887394336 M 22.999999999999993,48.49999999999993 M 22.611771432346238,48.4488887394336 M 22.249999999999986,48.29903810567667 M 21.939339828220163,48.06066017177989 M 21.70096189432332,47.749999999999915 M 21.551111260566394,47.3882285676538 M 21.49999999999998,46.9999999999999 M 21.551111260566394,46.61177143234619 M 21.70096189432332,46.2499999999999 M 21.93933982822015,45.939339828220085 M 22.249999999999986,45.7009618943233 M 22.611771432346238,45.55111126056637 M 22.999999999999993,45.49999999999986 M 23.388228567653798,45.55111126056637 M 28.500000000000007,22.24999999999993 M 28.500000000000007,44.24999999999997 M 17.499999999999993,44.24999999999997 M 17.499999999999986,22.249999999999915 M 25.801111260566394,53.3882285676537 M 25.75,52.999999999999915 M 25.801111260566394,52.61177143234612 M 25.950961894323335,52.2499999999999 M 26.189339828220177,51.93933982822011 M 26.5,51.70096189432324 M 26.861771432346224,51.551111260566316 M 27.25,51.4999999999999 M 27.638228567653776,51.551111260566316 M 28.0,51.70096189432324 M 28.310660171779823,51.93933982822011 M 28.549038105676658,52.2499999999999 M 28.6988887394336,52.61177143234612 M 28.750000000000007,52.999999999999915 M 28.6988887394336,53.3882285676537 M 28.549038105676658,53.7499999999999 M 28.310660171779823,54.060660171779745 M 28.0,54.29903810567657 M 27.63822856765379,54.448888739433514 M 27.25,54.499999999999915 M 26.861771432346224,54.448888739433514 M 26.499999999999986,54.29903810567657 M 26.189339828220177,54.060660171779745 M 25.950961894323335,53.7499999999999 M 20.198888739433606,52.61177143234612 M 20.25,52.999999999999915 M 20.198888739433606,53.3882285676537 M 20.049038105676665,53.7499999999999 M 19.81066017177983,54.060660171779745 M 19.5,54.29903810567657 M 19.138228567653783,54.448888739433514 M 18.75,54.499999999999915 M 18.361771432346224,54.448888739433514 M 18.000000000000007,54.29903810567657 M 17.689339828220177,54.060660171779745 M 17.450961894323342,53.7499999999999 M 17.3011112605664,53.3882285676537 M 17.249999999999993,52.999999999999915 M 17.301111260566387,52.61177143234612 M 17.450961894323342,52.2499999999999 M 17.689339828220177,51.93933982822011 M 18.000000000000007,51.70096189432324 M 18.361771432346217,51.551111260566316 M 18.75,51.4999999999999 M 19.138228567653783,51.551111260566316 M 19.5,51.70096189432324 M 19.81066017177983,51.93933982822011 M 20.049038105676665,52.2499999999999 M 29.704367347900245,55.11190649095897 M 29.709605614183772,55.042222587873454 M 29.72532041303434,54.98068044668952 M 29.75151174445196,54.927280067396595 M 29.78817960843665,54.8820214499853 M 29.836162127593724,54.84598218057599 M 29.896297424528584,54.820239845289535 M 29.96858549924123,54.80479444412002 M 30.053026351731646,54.79964597706393 M 30.645938229126287,54.79964597706392 M 30.645938229126287,54.67799847644733 M 30.79536351648261,54.67799847644733 M 30.79536351648261,54.79964597706392 M 31.10283478085043,54.79964597706392 M 31.10283478085043,54.979722592352246 M 30.79536351648261,54.979722592352246 M 30.79536351648261,55.31114019344123 M 30.645938229126287,55.31114019344122 M 30.645938229126287,54.979722592352246 M 30.137317539471127,54.979722592352246 M 30.01183861226805,54.98259615536409 M 29.929463133340846,55.00462680512358 M 29.90012884215311,55.0259390641334 M 29.879175777019015,55.05730879369314 M 29.862413324911728,55.155967790522325 M 29.87534435939449,55.24121682667297 M 29.896896083532425,55.300603795706834 M 29.735018688896417,55.31114019344123 M 29.712509110352343,55.20817085197929 M 30.288658535639698,53.50750048447489 M 30.161832625678016,53.49950838744468 M 30.048596275103307,53.47553209635758 M 29.94894948391557,53.435571611224205 M 29.862892252114804,53.37962693206235 M 29.79353760652093,53.31146961029809 M 29.743998573953874,53.234871197353314 M 29.714275154413656,53.14983169324728 M 29.704367347900245,53.056351098001784 M 29.722566581616718,52.91554651281942 M 29.7790799915784,52.79006759694144 M 29.33080412950943,52.79006759694143 M 29.33080412950943,52.60999098512697 M 30.79536351648261,52.60999098512697 M 30.79536351648261,52.79006759694144 M 30.68329455096537,52.79006759694143 M 30.738730374720177,52.86082908478795 M 30.78434819081211,52.93901394366934 M 30.814879800007517,53.02462217360244 M 30.825057003072658,53.11765377460523 M 30.815957386214407,53.20454912143562 M 30.788658535639712,53.281327132043884 M 30.743160451348515,53.347987806407005 M 30.67946313334086,53.40453114450533 M 30.600440144835105,53.44958023072995 M 30.508965049049664,53.481758149473336 M 30.405037845984538,53.50106490072393 M 29.725440144835105,54.527615345919784 M 29.725440144835105,54.34753873125271 M 29.84421409119527,54.34753873125271 M 29.780157577785303,54.266360576587076 M 29.733581907287217,54.189492766466245 M 29.705205470505604,54.11046978414964 M 29.69574665824507,54.02282611291383 M 29.701493784681844,53.95493818728794 M 29.718735163992193,53.8911211425996 M 29.748428650582227,53.833290687499584 M 29.7915320988581,53.783362530635344 M 29.84780604521825,53.742533989906505 M 29.91701102606116,53.71200238321269 M 30.00082328659755,53.692965028454864 M 30.100919072038167,53.68661924353633 M 30.79536351648261,53.68661924353633 M 30.79536351648261,53.86669585721221 M 30.186168114183758,53.86669585721222 M 30.044884589279548,53.8729219103497 M 29.946704512651195,53.901178613054725 M 29.911024436022842,53.92716041173452 M 29.88635968506499,53.961044508638935 M 29.87199186897304,54.00714124825957 M 29.86720259694239,54.069760975097694 M 29.87654167740216,54.138008096163205 M 29.90455891878146,54.21056556175938 M 29.99651294176998,54.34753873125271 M 30.79536351648261,54.34753873125271 M 30.79536351648261,54.527615345919784 M 29.725440144835105,51.29677272611535 M 29.725440144835105,50.74313294160817 M 29.871034014566902,50.74313294160817 M 29.871034014566902,50.925125257831155 M 31.006091485831263,50.925125257831155 M 31.006091485831277,50.74313294160817 M 31.151685355563075,50.74313294160817 M 31.15168535556309,51.29677272611535 M 31.006091485831277,51.296772726115336 M 31.006091485831277,51.11478040893107 M 29.871034014566902,51.11478040893107 M 29.871034014566902,51.29677272611535 M 29.725440144835105,52.357117445718245 M 29.725440144835105,52.1770408347535 M 30.334635547133956,52.1770408347535 M 30.47208765441364,52.16985692740883 M 30.57409914866652,52.14255807950455 M 30.609180566291045,52.116217085920866 M 30.633965049049664,52.081255403540425 M 30.648692060543922,52.0347994694406 M 30.653601064375337,51.97397572070925 M 30.644621179317866,51.90584833291089 M 30.617681524145453,51.835565772973794 M 30.52429071954775,51.696197971165304 M 29.725440144835105,51.696197971165304 M 29.725440144835105,51.51612136162977 M 30.79536351648261,51.516121361629786 M 30.79536351648261,51.696197971165304 M 30.67658957012246,51.696197971165304 M 30.740047424528584,51.776178805850776 M 30.786742826827435,51.85520178630625 M 30.81547845901136,51.93590101188012 M 30.825057003072658,52.02091058193116 M 30.81856155288108,52.09562321821561 M 30.79907520230637,52.16171516575231 M 30.766597951348515,52.219186424520814 M 30.721129800007517,52.268036994503646 M 30.6633292731876,52.307009691899054 M 30.59385489579296,52.33484733290625 M 30.512706667823622,52.3515499175147 M 30.419884589279548,52.357117445718245 M 15.195675750822232,54.85425686263109 M 15.204685568829888,54.73353728335215 M 15.231715022852875,54.62712565330776 M 15.276764112891193,54.535021972464605 M 15.33983283894483,54.457226240793105 M 15.419484419404604,54.395414703350454 M 15.51428207266131,54.351263605195726 M 15.624225798714953,54.324772946310375 M 15.749315597565527,54.315942726683176 M 15.873387676109587,54.32450354977935 M 15.984109658868206,54.35018601907146 M 16.081481545841385,54.39299013457003 M 16.16550333702913,54.45291589629248 M 16.233181737412274,54.52667067998972 M 16.28152345197165,54.61096186140985 M 16.31052848070729,54.70578944057279 M 16.320196823619163,54.81115341750039 M 16.31301291557319,54.905023142469304 M 16.291461191435253,54.98739861545461 M 16.254583796799245,55.05923769077276 M 16.201422877259006,55.12149822274512 M 16.13329548262299,55.172264502681486 M 16.05151866269962,55.20962082189155 M 15.952979390668972,55.23260932602574 M 15.834564639711118,55.240272160737916 M 15.736863490285835,55.240272160737916 M 15.736863490285835,54.49889290430653 M 15.64898034852338,54.50475976210117 M 15.572112532431419,54.522360335486766 M 15.506260042009963,54.55169462446807 M 15.451422877259013,54.59276262905311 M 15.408259563082765,54.64418743364662 M 15.377428624385445,54.70459212265364 M 15.358930061167058,54.77397669608631 M 15.352763873427591,54.85234115395832 M 15.366173835113415,54.96872045587804 M 15.400656593734112,55.07168979716501 M 15.443281114806908,55.154065270249376 M 15.482074218255178,55.20962082189155 M 15.285714064998473,55.22015721961927 M 15.254583796799245,55.14161316384978 M 15.225369237412266,55.05732198209711 M 15.203338586071268,54.96201547551783 M 15.22057996538161,51.965368220319846 M 15.220579965381617,51.77571306710033 M 16.44950716844675,51.77571306710033 M 15.613300271895028,51.404065596437704 M 15.613300271895028,51.289123080101945 M 16.44950716844675,50.920349174748836 M 15.220579965381617,50.920349174748836 M 15.220579965381617,50.74314613001154 M 16.64682517610958,50.74314613001154 M 16.64682517610958,51.00176679005175 M 15.852763873427591,51.35808858988223 M 16.64682517610958,51.70195828541186 M 16.64682517610958,51.965368220319846 M 15.220579965381617,54.129161132005535 M 15.22057996538161,53.949084517923524 M 15.329775367680469,53.949084517923524 M 15.271346248906518,53.876287588904646 M 15.229200655036792,53.80444851425982 M 15.200943950055944,53.72494660503881 M 15.190886478791576,53.62916117231673 M 15.199986095649813,53.54522918696175 M 15.227284946224529,53.467762718367226 M 15.272064639711118,53.39915640233205 M 15.333606785304987,53.341804874650464 M 15.412749505611501,53.29510947635221 M 15.508415214423763,53.2603872571182 M 15.620124984538698,53.23883553484082 M 15.747399888753257,53.231651627416014 M 15.87874567419388,53.24075124348752 M 15.991173835113415,53.26805009170678 M 16.08755793473027,53.311392999858995 M 16.17077153626284,53.36862479573362 M 16.233151804462075,53.4331602308676 M 16.28044586576476,53.50990830869313 M 16.310259084155568,53.59479814834771 M 16.320196823619163,53.68375886895829 M 16.302476517105752,53.82360560082739 M 16.247399888753264,53.94908451792354 M 16.71100142132032,53.949084517923524 M 16.71100142132031,54.129161132005535 M 15.7550627240023,53.1205405259757 M 15.627698020937174,53.11239876423696 M 15.51571885427051,53.0879734790246 M 15.419125224002308,53.04726467035037 M 15.337917130132574,52.99027233823405 M 15.273591220170886,52.91975031387453 M 15.227644141626826,52.83845242846989 M 15.200075894500387,52.746378682047805 M 15.190886478791576,52.6435290746405 M 15.200375224002308,52.537895703237865 M 15.228841459634495,52.44417564500435 M 15.276285185688131,52.36236889990511 M 15.342706402163223,52.29247546790893 M 15.425411143542533,52.236530789404256 M 15.521705444308822,52.19657030477981 M 15.631589304462075,52.17259401401397 M 15.7550627240023,52.164601917093464 M 15.88167910331265,52.17283347759212 M 15.993329007527208,52.19752815909273 M 16.090012436645985,52.23868596160919 M 16.171729390668965,52.296306885164654 M 16.23668389258468,52.36739763505726 M 16.28307996538161,52.44896491658214 M 16.31091760905978,52.54100872976659 M 16.320196823619163,52.6435290746405 M 16.310947542009977,52.746378682047805 M 16.28319969718239,52.83845242846989 M 16.2369532891364,52.91975031387453 M 16.17220831787204,52.99027233823405 M 16.090641028600004,53.04726467035037 M 15.993927666531043,53.0879734790246 M 15.882068231665144,53.11239876423696 "
  />
  <path id="face1-interior"
 style="fill:none;stroke:#00FF00;stroke-width:0.1;stroke-miterlimit:4;stroke-dasharray:none;stroke-linejoin:round;stroke-linecap:round"
        d="M 30.161832625678016,53.49950838744468 M 30.288658535639698,53.50750048447489 M 30.405037845984538,53.50106490072393 M 30.508965049049664,53.481758149473336 M 30.600440144835105,53.44958023072995 M 30.67946313334086,53.40453114450533 M 30.743160451348515,53.347987806407005 M 30.788658535639712,53.281327132043884 M 30.815957386214407,53.20454912143562 M 30.825057003072658,53.11765377460523 M 30.814879800007517,53.02462217360244 M 30.78434819081211,52.93901394366934 M 30.738730374720177,52.86082908478795 M 30.68329455096537,52.79006759694143 M 30.79536351648261,52.79006759694144 M 30.79536351648261,52.60999098512697 M 29.33080412950943,52.60999098512697 M 29.33080412950943,52.79006759694143 M 29.7790799915784,52.79006759694144 M 29.722566581616718,52.91554651281942 M 29.704367347900245,53.056351098001784 M 29.714275154413656,53.14983169324728 M 29.743998573953874,53.234871197353314 M 29.79353760652093,53.31146961029809 M 29.862892252114804,53.37962693206235 M 29.94894948391557,53.435571611224205 M 30.048596275103307,53.47553209635758 M 30.431019646750812,53.30706946699728 M 30.268543593110962,53.32167674543874 M 30.094932481999862,53.30228019537756 M 30.0259070988581,53.278034507806126 M 29.968735163992193,53.24409054521554 M 29.92389560460522,53.20140616193824 M 29.866244742536253,53.0266576140353 M 29.878696849815952,52.911236168378196 M 29.925631715716335,52.79006759694143 M 30.5319535547968,52.79006759694144 M 30.619597232957716,52.925603983182995 M 30.62833765441364,53.186619285828044 M 30.596758391961544,53.229483266784854 M 30.552547424528598,53.263247631685076 "
  />
  <path id="face2-interior"
 style="fill:none;stroke:#00FF00;stroke-width:0.1;stroke-miterlimit:4;stroke-dasharray:none;stroke-linejoin:round;stroke-linecap:round"
        d="M 29.725440144835105,50.74313294160817 M 29.725440144835105,51.29677272611535 M 29.871034014566902,51.29677272611535 M 29.871034014566902,51.11478040893107 M 31.006091485831277,51.11478040893107 M 31.006091485831277,51.296772726115336 M 31.15168535556309,51.29677272611535 M 31.151685355563075,50.74313294160817 M 31.006091485831277,50.74313294160817 M 31.006091485831263,50.925125257831155 M 29.871034014566902,50.925125257831155 M 29.871034014566902,50.74313294160817 "
  />
  <path id="face3-interior"
 style="fill:none;stroke:#00FF00;stroke-width:0.1;stroke-miterlimit:4;stroke-dasharray:none;stroke-linejoin:round;stroke-linecap:round"
        d="M 29.725440144835105,54.34753873125271 M 29.725440144835105,54.527615345919784 M 30.79536351648261,54.527615345919784 M 30.79536351648261,54.34753873125271 M 29.99651294176998,54.34753873125271 M 29.90455891878146,54.21056556175938 M 29.87654167740216,54.138008096163205 M 29.86720259694239,54.069760975097694 M 29.87199186897304,54.00714124825957 M 29.88635968506499,53.961044508638935 M 29.911024436022842,53.92716041173452 M 29.946704512651195,53.901178613054725 M 30.044884589279548,53.8729219103497 M 30.186168114183758,53.86669585721222 M 30.79536351648261,53.86669585721221 M 30.79536351648261,53.68661924353633 M 30.100919072038167,53.68661924353633 M 30.00082328659755,53.692965028454864 M 29.91701102606116,53.71200238321269 M 29.84780604521825,53.742533989906505 M 29.7915320988581,53.783362530635344 M 29.748428650582227,53.833290687499584 M 29.718735163992193,53.8911211425996 M 29.701493784681844,53.95493818728794 M 29.69574665824507,54.02282611291383 M 29.705205470505604,54.11046978414964 M 29.733581907287217,54.189492766466245 M 29.780157577785303,54.266360576587076 M 29.84421409119527,54.34753873125271 "
  />
  <path id="face4-interior"
 style="fill:none;stroke:#00FF00;stroke-width:0.1;stroke-miterlimit:4;stroke-dasharray:none;stroke-linejoin:round;stroke-linecap:round"
        d="M 29.709605614183772,55.042222587873454 M 29.704367347900245,55.11190649095897 M 29.712509110352343,55.20817085197929 M 29.735018688896417,55.31114019344123 M 29.896896083532425,55.300603795706834 M 29.87534435939449,55.24121682667297 M 29.862413324911728,55.155967790522325 M 29.879175777019015,55.05730879369314 M 29.90012884215311,55.0259390641334 M 29.929463133340846,55.00462680512358 M 30.01183861226805,54.98259615536409 M 30.137317539471127,54.979722592352246 M 30.645938229126287,54.979722592352246 M 30.645938229126287,55.31114019344122 M 30.79536351648261,55.31114019344123 M 30.79536351648261,54.979722592352246 M 31.10283478085043,54.979722592352246 M 31.10283478085043,54.79964597706392 M 30.79536351648261,54.79964597706392 M 30.79536351648261,54.67799847644733 M 30.645938229126287,54.67799847644733 M 30.645938229126287,54.79964597706392 M 30.053026351731646,54.79964597706393 M 29.96858549924123,54.80479444412002 M 29.896297424528584,54.820239845289535 M 29.836162127593724,54.84598218057599 M 29.78817960843665,54.8820214499853 M 29.75151174445196,54.927280067396595 M 29.72532041303434,54.98068044668952 "
  />
  <path id="face5-interior"
 style="fill:none;stroke:#00FF00;stroke-width:0.1;stroke-miterlimit:4;stroke-dasharray:none;stroke-linejoin:round;stroke-linecap:round"
        d="M 15.220579965381617,51.77571306710033 M 15.22057996538161,51.965368220319846 M 16.64682517610958,51.965368220319846 M 16.64682517610958,51.70195828541186 M 15.852763873427591,51.35808858988223 M 16.64682517610958,51.00176679005175 M 16.64682517610958,50.74314613001154 M 15.220579965381617,50.74314613001154 M 15.220579965381617,50.920349174748836 M 16.44950716844675,50.920349174748836 M 15.613300271895028,51.289123080101945 M 15.613300271895028,51.404065596437704 M 16.44950716844675,51.77571306710033 "
  />
  <path id="face6-interior"
 style="fill:none;stroke:#00FF00;stroke-width:0.1;stroke-miterlimit:4;stroke-dasharray:none;stroke-linejoin:round;stroke-linecap:round"
        d="M 29.725440144835105,52.1770408347535 M 29.725440144835105,52.357117445718245 M 30.419884589279548,52.357117445718245 M 30.512706667823622,52.3515499175147 M 30.59385489579296,52.33484733290625 M 30.6633292731876,52.307009691899054 M 30.721129800007517,52.268036994503646 M 30.766597951348515,52.219186424520814 M 30.79907520230637,52.16171516575231 M 30.81856155288108,52.09562321821561 M 30.825057003072658,52.02091058193116 M 30.81547845901136,51.93590101188012 M 30.786742826827435,51.85520178630625 M 30.740047424528584,51.776178805850776 M 30.67658957012246,51.696197971165304 M 30.79536351648261,51.696197971165304 M 30.79536351648261,51.516121361629786 M 29.725440144835105,51.51612136162977 M 29.725440144835105,51.696197971165304 M 30.52429071954775,51.696197971165304 M 30.617681524145453,51.835565772973794 M 30.644621179317866,51.90584833291089 M 30.653601064375337,51.97397572070925 M 30.648692060543922,52.0347994694406 M 30.633965049049664,52.081255403540425 M 30.609180566291045,52.116217085920866 M 30.57409914866652,52.14255807950455 M 30.47208765441364,52.16985692740883 M 30.334635547133956,52.1770408347535 "
  />
  <path id="face7-interior"
 style="fill:none;stroke:#00FF00;stroke-width:0.1;stroke-miterlimit:4;stroke-dasharray:none;stroke-linejoin:round;stroke-linecap:round"
        d="M 15.204685568829888,54.73353728335215 M 15.195675750822232,54.85425686263109 M 15.203338586071268,54.96201547551783 M 15.225369237412266,55.05732198209711 M 15.254583796799245,55.14161316384978 M 15.285714064998473,55.22015721961927 M 15.482074218255178,55.20962082189155 M 15.443281114806908,55.154065270249376 M 15.400656593734112,55.07168979716501 M 15.366173835113415,54.96872045587804 M 15.352763873427591,54.85234115395832 M 15.358930061167058,54.77397669608631 M 15.377428624385445,54.70459212265364 M 15.408259563082765,54.64418743364662 M 15.451422877259013,54.59276262905311 M 15.506260042009963,54.55169462446807 M 15.572112532431419,54.522360335486766 M 15.64898034852338,54.50475976210117 M 15.736863490285835,54.49889290430653 M 15.736863490285835,55.240272160737916 M 15.834564639711118,55.240272160737916 M 15.952979390668972,55.23260932602574 M 16.05151866269962,55.20962082189155 M 16.13329548262299,55.172264502681486 M 16.201422877259006,55.12149822274512 M 16.254583796799245,55.05923769077276 M 16.291461191435253,54.98739861545461 M 16.31301291557319,54.905023142469304 M 16.320196823619163,54.81115341750039 M 16.31052848070729,54.70578944057279 M 16.28152345197165,54.61096186140985 M 16.233181737412274,54.52667067998972 M 16.16550333702913,54.45291589629248 M 16.081481545841385,54.39299013457003 M 15.984109658868206,54.35018601907146 M 15.873387676109587,54.32450354977935 M 15.749315597565527,54.315942726683176 M 15.624225798714953,54.324772946310375 M 15.51428207266131,54.351263605195726 M 15.419484419404604,54.395414703350454 M 15.33983283894483,54.457226240793105 M 15.276764112891193,54.535021972464605 M 15.231715022852875,54.62712565330776 M 16.00027345197166,55.04774343871935 M 15.874794524768589,55.06498481679981 M 15.874794524768589,54.49889290430653 M 15.994047398331809,54.52571282565572 M 16.087438202929505,54.58701550304626 M 16.150177666531043,54.678490592018846 M 16.124794524768596,54.9676428697487 M 16.089353911741775,55.00368213919012 "
  />
  <path id="face8-interior"
 style="fill:none;stroke:#00FF00;stroke-width:0.1;stroke-miterlimit:4;stroke-dasharray:none;stroke-linejoin:round;stroke-linecap:round"
        d="M 15.627698020937174,53.11239876423696 M 15.7550627240023,53.1205405259757 M 15.882068231665144,53.11239876423696 M 15.993927666531043,53.0879734790246 M 16.090641028600004,53.04726467035037 M 16.17220831787204,52.99027233823405 M 16.2369532891364,52.91975031387453 M 16.28319969718239,52.83845242846989 M 16.310947542009977,52.746378682047805 M 16.320196823619163,52.6435290746405 M 16.31091760905978,52.54100872976659 M 16.28307996538161,52.44896491658214 M 16.23668389258468,52.36739763505726 M 16.171729390668965,52.296306885164654 M 16.090012436645985,52.23868596160919 M 15.993329007527208,52.19752815909273 M 15.88167910331265,52.17283347759212 M 15.7550627240023,52.164601917093464 M 15.631589304462075,52.17259401401397 M 15.521705444308822,52.19657030477981 M 15.425411143542533,52.236530789404256 M 15.342706402163223,52.29247546790893 M 15.276285185688131,52.36236889990511 M 15.228841459634495,52.44417564500435 M 15.200375224002308,52.537895703237865 M 15.190886478791576,52.6435290746405 M 15.200075894500387,52.746378682047805 M 15.227644141626826,52.83845242846989 M 15.273591220170886,52.91975031387453 M 15.337917130132574,52.99027233823405 M 15.419125224002308,53.04726467035037 M 15.51571885427051,53.0879734790246 M 15.936216938561692,52.91579916480326 M 15.7550627240023,52.93471678763086 M 15.575824218255178,52.915679433013196 M 15.505511718255178,52.89188273974629 M 15.448070386837557,52.85856736918228 M 15.403440358101925,52.81657144386037 M 15.371561766147899,52.766733086320826 M 15.37204069335096,52.51888828164654 M 15.404517944308822,52.46869072889585 M 15.44998609564982,52.42657507195811 M 15.508026086071276,52.39325970155846 M 15.578218854270503,52.369463008423395 M 15.7550627240023,52.35042565391986 M 15.936216938561692,52.36946300842341 M 16.00676890216323,52.39325970155846 M 16.063970769979314,52.42657507195811 M 16.108181737412266,52.46869072889585 M 16.13976099986438,52.51888828164654 M 16.13976099986438,52.76733174527011 M 16.108181737412266,52.81720003575744 M 16.063970769979314,52.85904629634216 M 16.00676890216323,52.89215213627381 "
  />
  <path id="face9-interior"
 style="fill:none;stroke:#00FF00;stroke-width:0.1;stroke-miterlimit:4;stroke-dasharray:none;stroke-linejoin:round;stroke-linecap:round"
        d="M 29.878696849815952,52.911236168378196 M 29.866244742536253,53.0266576140353 M 29.92389560460522,53.20140616193824 M 29.968735163992193,53.24409054521554 M 30.0259070988581,53.278034507806126 M 30.094932481999862,53.30228019537756 M 30.268543593110962,53.32167674543874 M 30.431019646750812,53.30706946699728 M 30.552547424528598,53.263247631685076 M 30.596758391961544,53.229483266784854 M 30.62833765441364,53.186619285828044 M 30.619597232957716,52.925603983182995 M 30.5319535547968,52.79006759694144 M 29.925631715716335,52.79006759694143 "
  />
  <path id="face10-interior"
 style="fill:none;stroke:#00FF00;stroke-width:0.1;stroke-miterlimit:4;stroke-dasharray:none;stroke-linejoin:round;stroke-linecap:round"
        d="M 15.37204069335096,52.51888828164654 M 15.371561766147899,52.766733086320826 M 15.403440358101925,52.81657144386037 M 15.448070386837557,52.85856736918228 M 15.505511718255178,52.89188273974629 M 15.575824218255178,52.915679433013196 M 15.7550627240023,52.93471678763086 M 15.936216938561692,52.91579916480326 M 16.00676890216323,52.89215213627381 M 16.063970769979314,52.85904629634216 M 16.108181737412266,52.81720003575744 M 16.13976099986438,52.76733174527011 M 16.13976099986438,52.51888828164654 M 16.108181737412266,52.46869072889585 M 16.063970769979314,52.42657507195811 M 16.00676890216323,52.39325970155846 M 15.936216938561692,52.36946300842341 M 15.7550627240023,52.35042565391986 M 15.578218854270503,52.369463008423395 M 15.508026086071276,52.39325970155846 M 15.44998609564982,52.42657507195811 M 15.404517944308822,52.46869072889585 "
  />
  <path id="face11-interior"
 style="fill:none;stroke:#00FF00;stroke-width:0.1;stroke-miterlimit:4;stroke-dasharray:none;stroke-linejoin:round;stroke-linecap:round"
        d="M 15.874794524768589,54.49889290430653 M 15.874794524768589,55.06498481679981 M 16.00027345197166,55.04774343871935 M 16.089353911741775,55.00368213919012 M 16.124794524768596,54.9676428697487 M 16.150177666531043,54.678490592018846 M 16.087438202929505,54.58701550304626 M 15.994047398331809,54.52571282565572 "
  />
  <path id="face12-interior"
 style="fill:none;stroke:#00FF00;stroke-width:0.1;stroke-miterlimit:4;stroke-dasharray:none;stroke-linejoin:round;stroke-linecap:round"
        d="M 15.22057996538161,53.949084517923524 M 15.220579965381617,54.129161132005535 M 16.71100142132031,54.129161132005535 M 16.71100142132032,53.949084517923524 M 16.247399888753264,53.94908451792354 M 16.302476517105752,53.82360560082739 M 16.320196823619163,53.68375886895829 M 16.310259084155568,53.59479814834771 M 16.28044586576476,53.50990830869313 M 16.233151804462075,53.4331602308676 M 16.17077153626284,53.36862479573362 M 16.08755793473027,53.311392999858995 M 15.991173835113415,53.26805009170678 M 15.87874567419388,53.24075124348752 M 15.747399888753257,53.231651627416014 M 15.620124984538698,53.23883553484082 M 15.508415214423763,53.2603872571182 M 15.412749505611501,53.29510947635221 M 15.333606785304987,53.341804874650464 M 15.272064639711118,53.39915640233205 M 15.227284946224529,53.467762718367226 M 15.199986095649813,53.54522918696175 M 15.190886478791576,53.62916117231673 M 15.200943950055944,53.72494660503881 M 15.229200655036792,53.80444851425982 M 15.271346248906518,53.876287588904646 M 15.329775367680469,53.949084517923524 M 16.097974601396942,53.949084517923524 M 15.481116363849054,53.949084517923524 M 15.432146057335643,53.88371095995383 M 15.36859840407893,53.60928569503719 M 15.387366363849047,53.55636424350301 M 15.418646296799238,53.51254240808903 M 15.462438202929505,53.47782018878442 M 15.584684371511884,53.432561571914405 M 15.751231306377782,53.41747536629529 M 15.9244832220866,53.43711137995868 M 15.993778001780086,53.46165639704296 M 16.05151866269963,53.496019420970285 M 16.096986814040612,53.539062999737766 M 16.12946406499848,53.589649681342806 M 16.142993758485062,53.82887379963404 "
  />
  <path id="face13-interior"
 style="fill:none;stroke:#00FF00;stroke-width:0.1;stroke-miterlimit:4;stroke-dasharray:none;stroke-linejoin:round;stroke-linecap:round"
        d="M 15.387366363849047,53.55636424350301 M 15.36859840407893,53.60928569503719 M 15.432146057335643,53.88371095995383 M 15.481116363849054,53.949084517923524 M 16.097974601396942,53.949084517923524 M 16.142993758485062,53.82887379963404 M 16.12946406499848,53.589649681342806 M 16.096986814040612,53.539062999737766 M 16.05151866269963,53.496019420970285 M 15.993778001780086,53.46165639704296 M 15.9244832220866,53.43711137995868 M 15.751231306377782,53.41747536629529 M 15.584684371511884,53.432561571914405 M 15.462438202929505,53.47782018878442 M 15.418646296799238,53.51254240808903 "
  />
</svg>
